<?xml version="1.0" encoding="UTF-8" standalone="no"?>
<!-- Created with Inkscape (http://www.inkscape.org/) -->

<svg
   width="33.041748"
   height="62.20343"
   viewBox="0 0 33.041748 62.20343"
   version="1.1"
   id="svg5"
   xml:space="preserve"
   inkscape:version="1.2.2 (b0a8486541, 2022-12-01)"
   sodipodi:docname="prototype.svg"
   xmlns:inkscape="http://www.inkscape.org/namespaces/inkscape"
   xmlns:sodipodi="http://sodipodi.sourceforge.net/DTD/sodipodi-0.dtd"
   xmlns="http://www.w3.org/2000/svg"
   xmlns:svg="http://www.w3.org/2000/svg"><sodipodi:namedview
     id="namedview7"
     pagecolor="#ffffff"
     bordercolor="#000000"
     borderopacity="0.25"
     inkscape:showpageshadow="2"
     inkscape:pageopacity="0.0"
     inkscape:pagecheckerboard="0"
     inkscape:deskcolor="#d1d1d1"
     inkscape:document-units="px"
     showgrid="false"
     showguides="false"
     inkscape:zoom="0.11752377"
     inkscape:cx="3522.6917"
     inkscape:cy="-727.51242"
     inkscape:window-width="1584"
     inkscape:window-height="847"
     inkscape:window-x="0"
     inkscape:window-y="0"
     inkscape:window-maximized="1"
     inkscape:current-layer="layer1" /><defs
     id="defs2"><inkscape:path-effect
       effect="spiro"
       id="path-effect7966"
       is_visible="true"
       lpeversion="1" /><clipPath
       clipPathUnits="userSpaceOnUse"
       id="clipPath22281"><g
         id="g22285"><rect
           style="fill:#e0e0e0;fill-opacity:1;stroke:none;stroke-width:11.125;stroke-linecap:square;stroke-dasharray:none;stroke-opacity:1"
           id="rect22283"
           width="1920"
           height="1080"
           x="-2.2186279e-07"
           y="1.6632081e-08"
           d="M -2.2186279e-7,1.6632081e-8 H 1920 V 1080 H -2.2186279e-7 Z" /></g></clipPath></defs><g
     inkscape:label="Layer 1"
     inkscape:groupmode="layer"
     id="layer1"
     transform="translate(-1033.7974,-1008.284)"><path
       style="fill:none;fill-opacity:1;stroke:#d73c2c;stroke-width:11.125;stroke-linecap:round;stroke-dasharray:none;stroke-opacity:1"
       d="m 1058.2412,1019.9355 c -0.4367,-1.7436 -1.4773,-3.3298 -2.9028,-4.4247 -1.4255,-1.0948 -3.2264,-1.6911 -5.0236,-1.6633 -1.7973,0.028 -3.5789,0.6797 -4.9698,1.8181 -1.3909,1.1385 -2.3819,2.7562 -2.7643,4.5125 -0.4915,2.2571 0.022,4.6557 1.0963,6.7005 1.0747,2.0449 2.6786,3.7681 4.4223,5.2833 3.4873,3.0303 7.6604,5.3934 10.338,9.1584 2.2868,3.2154 3.2826,7.3382 2.6428,11.2317 -0.7636,4.6466 -3.8936,8.8405 -8.1308,10.8947 -4.2372,2.0542 -9.4685,1.9137 -13.5894,-0.3649"
       id="path7940"
       inkscape:path-effect="#path-effect7966"
       inkscape:original-d="m 1058.2412,1019.9355 c -6.4888,-3.7891 -15.6605,-11.1347 -15.6605,0.2426 0,23.1607 10.3522,11.2342 15.8566,21.1422 0.5237,0.9426 3.3895,9.7383 2.6428,11.2317 -3.7123,7.4245 -29.1721,-4.3741 -21.7202,10.5298"
       sodipodi:nodetypes="csssc"
       clip-path="url(#clipPath22281)" /></g></svg>
