<?xml version="1.0" encoding="UTF-8" standalone="no"?>
<!-- Created with Inkscape (http://www.inkscape.org/) -->

<svg
   width="41.062134"
   height="34.891357"
   viewBox="0 0 41.062134 34.891357"
   version="1.1"
   id="svg5"
   xml:space="preserve"
   inkscape:version="1.2.2 (b0a8486541, 2022-12-01)"
   sodipodi:docname="prototype.svg"
   xmlns:inkscape="http://www.inkscape.org/namespaces/inkscape"
   xmlns:sodipodi="http://sodipodi.sourceforge.net/DTD/sodipodi-0.dtd"
   xmlns="http://www.w3.org/2000/svg"
   xmlns:svg="http://www.w3.org/2000/svg"><sodipodi:namedview
     id="namedview7"
     pagecolor="#ffffff"
     bordercolor="#000000"
     borderopacity="0.25"
     inkscape:showpageshadow="2"
     inkscape:pageopacity="0.0"
     inkscape:pagecheckerboard="0"
     inkscape:deskcolor="#d1d1d1"
     inkscape:document-units="px"
     showgrid="false"
     showguides="false"
     inkscape:zoom="0.11752377"
     inkscape:cx="3522.6917"
     inkscape:cy="-727.51242"
     inkscape:window-width="1584"
     inkscape:window-height="847"
     inkscape:window-x="0"
     inkscape:window-y="0"
     inkscape:window-maximized="1"
     inkscape:current-layer="layer1" /><defs
     id="defs2"><inkscape:path-effect
       effect="spiro"
       id="path-effect7962"
       is_visible="true"
       lpeversion="1" /><clipPath
       clipPathUnits="userSpaceOnUse"
       id="clipPath22287"><g
         id="g22291"><rect
           style="fill:#e0e0e0;fill-opacity:1;stroke:none;stroke-width:11.125;stroke-linecap:square;stroke-dasharray:none;stroke-opacity:1"
           id="rect22289"
           width="1920"
           height="1080"
           x="-2.2186279e-07"
           y="1.6632081e-08"
           d="M -2.2186279e-7,1.6632081e-8 H 1920 V 1080 H -2.2186279e-7 Z" /></g></clipPath></defs><g
     inkscape:label="Layer 1"
     inkscape:groupmode="layer"
     id="layer1"
     transform="translate(-1188.9254,-1045.1086)"><path
       style="fill:none;fill-opacity:0.994842;stroke:#ee7f59;stroke-width:11.125;stroke-linecap:round;stroke-dasharray:none;stroke-opacity:1"
       d="m 1194.4879,1050.6712 c 0.9467,0.5365 1.7842,1.2645 2.4473,2.1272 1.1251,1.4638 1.7265,3.2864 1.9055,5.124 0.179,1.8375 -0.047,3.6952 -0.4501,5.4968 -0.807,3.6031 -2.3225,7.0436 -2.8119,10.7034 -0.1726,1.291 -0.2147,2.6083 0,3.893 0.3226,1.9301 1.2323,3.753 2.5544,5.1956 1.3221,1.4426 3.0493,2.5037 4.9237,3.0656 1.8744,0.562 3.8907,0.6274 5.8054,0.2237 1.9147,-0.4038 3.7254,-1.2727 5.2612,-2.4854 1.0174,-0.8034 1.9124,-1.7516 2.7463,-2.7442 3.9984,-4.7596 6.6454,-10.6422 7.5554,-16.7914"
       id="path7938"
       inkscape:path-effect="#path-effect7962"
       inkscape:original-d="m 1194.4879,1050.6712 c 0.8158,0.7091 2.2095,1.0729 2.4473,2.1272 0.979,4.3417 -1.1107,18.3346 -1.3565,21.3242 -0.1064,1.2933 -0.4323,2.6695 0,3.893 1.2657,3.5838 15.7302,6.7918 18.5447,5.9995 1.2457,-0.3507 1.9209,-1.7473 2.7463,-2.7442 4.6215,-5.5829 5.388,-10.2896 7.5554,-16.7914"
       clip-path="url(#clipPath22287)" /></g></svg>
