<?xml version="1.0" encoding="UTF-8" standalone="no"?>
<!-- Created with Inkscape (http://www.inkscape.org/) -->

<svg
   width="41.014221"
   height="35.598877"
   viewBox="0 0 41.014221 35.598877"
   version="1.1"
   id="svg5"
   xml:space="preserve"
   inkscape:version="1.2.2 (b0a8486541, 2022-12-01)"
   sodipodi:docname="prototype.svg"
   xmlns:inkscape="http://www.inkscape.org/namespaces/inkscape"
   xmlns:sodipodi="http://sodipodi.sourceforge.net/DTD/sodipodi-0.dtd"
   xmlns="http://www.w3.org/2000/svg"
   xmlns:svg="http://www.w3.org/2000/svg"><sodipodi:namedview
     id="namedview7"
     pagecolor="#ffffff"
     bordercolor="#000000"
     borderopacity="0.25"
     inkscape:showpageshadow="2"
     inkscape:pageopacity="0.0"
     inkscape:pagecheckerboard="0"
     inkscape:deskcolor="#d1d1d1"
     inkscape:document-units="px"
     showgrid="false"
     showguides="false"
     inkscape:zoom="0.11752377"
     inkscape:cx="3522.6917"
     inkscape:cy="-727.51242"
     inkscape:window-width="1584"
     inkscape:window-height="847"
     inkscape:window-x="0"
     inkscape:window-y="0"
     inkscape:window-maximized="1"
     inkscape:current-layer="layer1" /><defs
     id="defs2"><inkscape:path-effect
       effect="spiro"
       id="path-effect7958"
       is_visible="true"
       lpeversion="1" /><clipPath
       clipPathUnits="userSpaceOnUse"
       id="clipPath22293"><g
         id="g22297"><rect
           style="fill:#e0e0e0;fill-opacity:1;stroke:none;stroke-width:11.125;stroke-linecap:square;stroke-dasharray:none;stroke-opacity:1"
           id="rect22295"
           width="1920"
           height="1080"
           x="-2.2186279e-07"
           y="1.6632081e-08"
           d="M -2.2186279e-7,1.6632081e-8 H 1920 V 1080 H -2.2186279e-7 Z" /></g></clipPath></defs><g
     inkscape:label="Layer 1"
     inkscape:groupmode="layer"
     id="layer1"
     transform="translate(-306.99353,-1007.3707)"><path
       style="fill:none;fill-opacity:0.994842;stroke:#fa5f98;stroke-width:11.125;stroke-linecap:round;stroke-dasharray:none;stroke-opacity:1"
       d="m 312.55604,1037.4071 c 2.76184,-3.9013 4.68777,-8.3913 5.611,-13.0812 0.4578,-2.3256 0.6804,-4.727 1.5954,-6.9135 0.47607,-1.1376 1.14407,-2.2093 2.0524,-3.0434 0.48627,-0.4465 1.04063,-0.823 1.64938,-1.0785 0.60875,-0.2555 1.27288,-0.3878 1.93202,-0.3507 0.92834,0.052 1.82092,0.4414 2.55002,1.0184 0.7291,0.5771 1.30162,1.335 1.74069,2.1547 0.87813,1.6392 1.2295,3.4987 1.75029,5.2839 0.43984,1.5077 1.01266,2.9896 1.8655,4.3084 0.72363,1.119 1.64559,2.1167 2.2145,3.3218 0.41382,0.8766 0.62878,1.8396 1.0781,2.6985 0.70461,1.3469 1.9315,2.3396 3.1909,3.1908 0.85679,0.5791 1.74484,1.1119 2.659,1.5954"
       id="path7936"
       inkscape:path-effect="#path-effect7958"
       inkscape:original-d="m 312.55604,1037.4071 c 3.9817,-15.1805 -1.4207,3.0948 5.611,-13.0812 0.9428,-2.169 0.538,-4.798 1.5954,-6.9135 0.547,-1.0945 1.4008,-2.0078 2.0524,-3.0434 0.9456,-1.5027 0.7334,-3.5555 3.5814,-1.4292 1.7197,1.2839 5.2506,6.9888 6.041,8.457 0.7419,1.378 1.1275,2.9284 1.8655,4.3084 0.6275,1.1735 1.5759,2.1542 2.2145,3.3218 0.4648,0.8498 0.5422,1.8916 1.0781,2.6985 0.8323,1.2529 1.9875,2.2883 3.1909,3.1908 0.8729,0.6547 1.8649,0.8013 2.659,1.5954"
       clip-path="url(#clipPath22293)" /></g></svg>
