<?xml version="1.0" encoding="UTF-8" standalone="no"?>
<!-- Created with Inkscape (http://www.inkscape.org/) -->

<svg
   width="6171.7188"
   height="1121.3926"
   viewBox="0 0 6171.7188 1121.3926"
   version="1.1"
   id="svg5"
   xml:space="preserve"
   inkscape:version="1.2.2 (b0a8486541, 2022-12-01)"
   sodipodi:docname="prototype.svg"
   xmlns:inkscape="http://www.inkscape.org/namespaces/inkscape"
   xmlns:sodipodi="http://sodipodi.sourceforge.net/DTD/sodipodi-0.dtd"
   xmlns="http://www.w3.org/2000/svg"
   xmlns:svg="http://www.w3.org/2000/svg"><sodipodi:namedview
     id="namedview7"
     pagecolor="#ffffff"
     bordercolor="#000000"
     borderopacity="0.25"
     inkscape:showpageshadow="2"
     inkscape:pageopacity="0.0"
     inkscape:pagecheckerboard="0"
     inkscape:deskcolor="#d1d1d1"
     inkscape:document-units="px"
     showgrid="false"
     showguides="false"
     inkscape:zoom="0.47009506"
     inkscape:cx="971.08018"
     inkscape:cy="590.30613"
     inkscape:window-width="1584"
     inkscape:window-height="847"
     inkscape:window-x="0"
     inkscape:window-y="0"
     inkscape:window-maximized="1"
     inkscape:current-layer="layer1" /><defs
     id="defs2" /><g
     inkscape:label="Layer 1"
     inkscape:groupmode="layer"
     id="layer1"
     transform="translate(5274.2998,6129.6875)"><g
       id="g3448"
       transform="translate(-4483.4384,-2965.1584)"><path
         id="path1401"
         style="opacity:1;fill:#3dbeb5;fill-opacity:1;stroke:none;stroke-width:16.3542;stroke-linecap:round;stroke-dasharray:none;stroke-opacity:1"
         d="m -694.33004,-3164.5293 c 7.4114,1.2842 14.78733,2.827 22.08006,4.8047 6.7936,1.8422 13.51792,4.0201 20.10547,6.5449 6.58765,2.5249 13.03835,5.3959 19.27734,8.6231 6.23896,3.2271 12.26818,6.8105 18.01562,10.7597 5.74756,3.9492 11.21478,8.2642 16.32812,12.9551 2.92211,2.6805 5.72807,5.4862 8.40626,8.4141 4.85216,5.305 9.20045,10.924 13.08984,16.7851 3.88935,5.8607 7.32023,11.9626 10.33203,18.2305 3.0117,6.268 5.60482,12.7029 7.82422,19.2285 2.21941,6.5257 4.06597,13.1431 5.57812,19.7774 1.51,6.6241 2.7019,13.2718 3.64649,19.9277 0.9447,6.6557 1.6403,13.3215 2.1543,19.9805 1.02785,13.3176 1.32955,26.6119 1.44335,39.7695 0.1138,13.1556 0.0454,26.2317 0.29883,39.1933 0.25331,12.9619 0.82851,25.8101 2.22656,38.5118 0.6984,6.3456 1.61122,12.6662 2.78321,18.9218 1.172,6.2555 2.6017,12.4461 4.33789,18.5235 1.7362,6.0773 3.77707,12.0427 6.16798,17.8535 2.39089,5.8109 5.13342,11.4676 8.26952,16.9238 2.28371,3.9731 4.77588,7.8342 7.45509,11.582 2.67904,3.7482 5.54562,7.3827 8.58202,10.9063 6.07265,7.0474 12.8211,13.6472 20.09375,19.8008 7.27265,6.1534 15.06923,11.86 23.23633,17.125 8.16695,5.2648 16.70488,10.0896 25.46093,14.4707 8.77205,4.3895 17.78126,8.3808 26.97071,12.0742 9.18935,3.6934 18.56019,7.0862 28.05664,10.2832 18.993,6.3946 38.49098,11.9984 58.05078,17.6074 19.5637,5.6103 39.33424,11.2853 58.83595,17.8867 9.75084,3.3008 19.43417,6.8318 28.99022,10.7051 9.55595,3.8732 18.98491,8.0879 28.22656,12.75 9.25805,4.6702 18.33765,9.8308 27.0625,15.5 8.72485,5.6692 17.09535,11.8448 24.9375,18.5508 7.8421,6.7059 15.15563,13.9419 21.76563,21.7227 3.30505,3.8904 6.43378,7.916 9.36523,12.082 2.9315,4.1663 5.66749,8.4733 8.18164,12.9199 2.8495,5.0395 5.37319,10.1662 7.61914,15.3652 2.246,5.199 4.21256,10.4685 5.94336,15.793 3.46172,10.6492 5.98259,21.5149 7.91409,32.461 1.93136,10.946 3.27269,21.9755 4.38085,32.9453 1.1082,10.9699 1.98265,21.8815 2.97461,32.6015 0.9911,10.7107 2.11804,21.3535 3.70704,31.8399 1.58906,10.4865 3.64146,20.8183 6.47656,30.9062 1.416,5.0382 3.03536,10.0218 4.88086,14.9121 1.84569,4.8903 3.91672,9.6859 6.23242,14.3457 2.31559,4.6599 4.87696,9.1845 7.70312,13.5313 2.8261,4.3467 5.91783,8.5159 9.29493,12.4668 5.20016,6.084 11.06884,11.6358 17.46679,16.6797 6.39799,5.044 13.32417,9.5805 20.63672,13.6386 7.31268,4.0581 15.01307,7.6372 22.95703,10.7637 7.94396,3.1266 16.13363,5.8013 24.42578,8.0508 8.31276,2.2549 16.75749,4.1218 25.30664,5.709 8.54926,1.587 17.20104,2.894 25.92969,4.0215 17.45739,2.2551 35.21786,3.7979 53.05076,5.4648 17.83863,1.6673 35.91456,3.4908 53.88477,6.3691 8.98515,1.4393 17.94393,3.1412 26.83398,5.2208 8.88995,2.0798 17.71233,4.5368 26.42188,7.4824 8.73565,2.9541 17.36578,6.4477 25.70703,10.5019 8.34115,4.0541 16.39265,8.6694 23.9707,13.8711 7.5781,5.2015 14.68276,10.99 21.12891,17.3867 3.2231,3.1985 6.28139,6.5486 9.15234,10.0547 2.871,3.5064 5.55455,7.1684 8.02735,10.9883 2.94795,4.5542 5.54539,9.2487 7.83789,14.0449 2.2924,4.7961 4.28032,9.693 6.01172,14.6524 1.73156,4.9595 3.20531,9.9812 4.47071,15.0254 1.2653,5.0442 2.32279,10.1118 3.21679,15.1621 1.78625,10.0909 2.95277,20.1543 3.92187,30.1386 0.96911,9.9844 1.74008,19.8903 2.73438,29.6661 0.60588,5.9574 1.60001,11.7721 2.45898,17.6367 H 2294.998 5284.3261 c -7.4114,-1.2842 -14.7873,-2.827 -22.08,-4.8047 -6.7936,-1.8422 -13.5179,-4.0201 -20.1055,-6.5449 -6.5876,-2.5249 -13.0384,-5.3959 -19.2774,-8.6231 -6.239,-3.2271 -12.2682,-6.8105 -18.0156,-10.7597 -5.7476,-3.9492 -11.2148,-8.2642 -16.3281,-12.9551 -2.9221,-2.6805 -5.7281,-5.4862 -8.4063,-8.4141 -4.8522,-5.305 -9.2004,-10.924 -13.0898,-16.7851 -3.8894,-5.8607 -7.3202,-11.9626 -10.332,-18.2305 -3.0117,-6.268 -5.6049,-12.7029 -7.8242,-19.2285 -2.2194,-6.5257 -4.066,-13.1431 -5.5782,-19.7774 -1.51,-6.6242 -2.7019,-13.2718 -3.6465,-19.9277 -0.9447,-6.6557 -1.6403,-13.3215 -2.1543,-19.9805 -1.0279,-13.3177 -1.3296,-26.6119 -1.4433,-39.7695 -0.1138,-13.1556 -0.045,-26.2317 -0.2988,-39.1934 -0.2533,-12.9618 -0.8286,-25.81 -2.2266,-38.5117 -0.6984,-6.3456 -1.6113,-12.6663 -2.7832,-18.9219 -1.1721,-6.2554 -2.6017,-12.446 -4.3379,-18.5234 -1.7362,-6.0773 -3.7771,-12.0427 -6.168,-17.8535 -2.3909,-5.8109 -5.1334,-11.4676 -8.2695,-16.9238 -2.2837,-3.9731 -4.7759,-7.8342 -7.4551,-11.5821 -2.6791,-3.7482 -5.5455,-7.3826 -8.582,-10.9062 -6.0726,-7.0474 -12.8211,-13.6472 -20.0938,-19.8008 -7.2727,-6.1534 -15.0692,-11.86 -23.2363,-17.125 -8.167,-5.2648 -16.7048,-10.0896 -25.4609,-14.4707 -8.772,-4.3895 -17.7812,-8.3808 -26.9707,-12.0742 -9.1893,-3.6934 -18.5603,-7.0862 -28.0567,-10.2832 -18.9929,-6.3946 -38.491,-11.9984 -58.0508,-17.6074 -19.5636,-5.6103 -39.3342,-11.2853 -58.8359,-17.8868 -9.7509,-3.3008 -19.4341,-6.8317 -28.9902,-10.705 -9.5559,-3.8732 -18.985,-8.0879 -28.2266,-12.75 -9.2581,-4.6702 -18.3377,-9.8308 -27.0625,-15.5 -8.7249,-5.6692 -17.0954,-11.8448 -24.9375,-18.5508 -7.8421,-6.7059 -15.1557,-13.9419 -21.7656,-21.7227 -3.3051,-3.8904 -6.4337,-7.916 -9.3652,-12.082 -2.9315,-4.1663 -5.6676,-8.4733 -8.1817,-12.9199 -2.8495,-5.0395 -5.3731,-10.1662 -7.6191,-15.3653 -2.246,-5.199 -4.2126,-10.4684 -5.9434,-15.7929 -3.4617,-10.6492 -5.9825,-21.5149 -7.914,-32.461 -1.9314,-10.9461 -3.2728,-21.9755 -4.3809,-32.9453 -1.1082,-10.9699 -1.9826,-21.8816 -2.9746,-32.6015 -0.9911,-10.7107 -2.118,-21.3535 -3.707,-31.8399 -1.5891,-10.4865 -3.6416,-20.8184 -6.4766,-30.9062 -1.416,-5.0382 -3.0354,-10.0219 -4.8809,-14.9121 -1.8457,-4.8903 -3.9167,-9.686 -6.2324,-14.3458 -2.3156,-4.6598 -4.8769,-9.1844 -7.7031,-13.5312 -2.8261,-4.3467 -5.9178,-8.5159 -9.2949,-12.4668 -5.2001,-6.084 -11.0688,-11.6358 -17.4668,-16.6797 -6.398,-5.044 -13.3242,-9.5806 -20.6368,-13.6387 -7.3126,-4.0581 -15.0131,-7.6371 -22.957,-10.7636 -7.944,-3.1266 -16.1336,-5.8013 -24.4258,-8.0508 -8.3128,-2.2549 -16.7575,-4.1218 -25.3066,-5.709 -8.5493,-1.587 -17.2011,-2.894 -25.9297,-4.0215 -17.4575,-2.2551 -35.2179,-3.7979 -53.0508,-5.4648 -17.8387,-1.6673 -35.9146,-3.4908 -53.8847,-6.3692 -8.9851,-1.4393 -17.9439,-3.1411 -26.834,-5.2207 -8.8899,-2.0798 -17.7124,-4.5368 -26.4219,-7.4824 -8.7357,-2.9541 -17.3657,-6.4477 -25.707,-10.5019 -8.3411,-4.0541 -16.3926,-8.6694 -23.9707,-13.8711 -7.5781,-5.2015 -14.6827,-10.9901 -21.1289,-17.3868 -3.2231,-3.1985 -6.2815,-6.5485 -9.1524,-10.0546 -2.871,-3.5064 -5.5545,-7.1684 -8.0273,-10.9883 -2.9479,-4.5542 -5.5454,-9.2488 -7.8379,-14.0449 -2.2924,-4.7961 -4.2803,-9.693 -6.0117,-14.6524 -1.7315,-4.9595 -3.2053,-9.9812 -4.4707,-15.0254 -1.2653,-5.0442 -2.3228,-10.1118 -3.2168,-15.1621 -1.7862,-10.0909 -2.9528,-20.1543 -3.9219,-30.1387 -0.9691,-9.9844 -1.7401,-19.8902 -2.7344,-29.666 -0.6059,-5.9574 -1.6,-11.7721 -2.459,-17.6367 H 2294.998 Z" /><rect
         style="opacity:1;fill:#7cd3cd;fill-opacity:0;stroke:none;stroke-width:11.9286;stroke-linecap:round;stroke-dasharray:none;stroke-opacity:1"
         id="rect2921"
         width="96.531319"
         height="1121.3926"
         x="-790.86133"
         y="-3164.5293" /><rect
         style="opacity:1;fill:#7cd3cd;fill-opacity:0;stroke:none;stroke-width:11.9286;stroke-linecap:round;stroke-dasharray:none;stroke-opacity:1"
         id="rect3443"
         width="96.531319"
         height="1121.3926"
         x="5284.3262"
         y="-3164.5293" /></g></g></svg>
