<?xml version="1.0" encoding="UTF-8" standalone="no"?>
<!-- Created with Inkscape (http://www.inkscape.org/) -->

<svg
   width="3691.9717"
   height="1080"
   viewBox="0 0 3691.9717 1080"
   version="1.1"
   id="svg5"
   xml:space="preserve"
   inkscape:version="1.2.2 (b0a8486541, 2022-12-01)"
   sodipodi:docname="prototype.svg"
   xmlns:inkscape="http://www.inkscape.org/namespaces/inkscape"
   xmlns:sodipodi="http://sodipodi.sourceforge.net/DTD/sodipodi-0.dtd"
   xmlns="http://www.w3.org/2000/svg"
   xmlns:svg="http://www.w3.org/2000/svg"><sodipodi:namedview
     id="namedview7"
     pagecolor="#ffffff"
     bordercolor="#000000"
     borderopacity="0.25"
     inkscape:showpageshadow="2"
     inkscape:pageopacity="0.0"
     inkscape:pagecheckerboard="0"
     inkscape:deskcolor="#d1d1d1"
     inkscape:document-units="px"
     showgrid="false"
     showguides="true"
     inkscape:zoom="0.11752377"
     inkscape:cx="3522.6917"
     inkscape:cy="-727.51242"
     inkscape:window-width="1584"
     inkscape:window-height="847"
     inkscape:window-x="0"
     inkscape:window-y="0"
     inkscape:window-maximized="1"
     inkscape:current-layer="layer1" /><defs
     id="defs2"><clipPath
       clipPathUnits="userSpaceOnUse"
       id="clipPath3437"><rect
         style="fill:#e0e0e0;fill-opacity:1;stroke:none;stroke-width:11.125;stroke-linecap:square;stroke-dasharray:none;stroke-opacity:1"
         id="rect3439"
         width="1920"
         height="1080"
         x="624.94666"
         y="529.59436" /></clipPath><clipPath
       clipPathUnits="userSpaceOnUse"
       id="clipPath11885"><g
         id="g11889"><rect
           style="fill:#e0e0e0;fill-opacity:1;stroke:none;stroke-width:11.125;stroke-linecap:square;stroke-dasharray:none;stroke-opacity:1"
           id="rect11887"
           width="1920"
           height="1080"
           x="-4481.4644"
           y="-1076.4761"
           transform="scale(-1)" /></g></clipPath><clipPath
       clipPathUnits="userSpaceOnUse"
       id="clipPath12299"><g
         id="g12303"
         transform="translate(-60)"><rect
           style="opacity:1;fill:#ffffff;fill-opacity:1;stroke:none;stroke-width:5;stroke-linecap:round;stroke-dasharray:none;stroke-opacity:1"
           id="rect12301"
           width="1920"
           height="1080"
           x="2074.7634"
           y="-3.9220791" /></g></clipPath><clipPath
       clipPathUnits="userSpaceOnUse"
       id="clipPath12322"><g
         id="g12328"><g
           id="g12326"><rect
             style="opacity:1;fill:#ffffff;fill-opacity:1;stroke:none;stroke-width:5;stroke-linecap:round;stroke-dasharray:none;stroke-opacity:1"
             id="rect12324"
             width="1920"
             height="1080"
             x="2074.7634"
             y="-3.9220791" /></g></g></clipPath><clipPath
       clipPathUnits="userSpaceOnUse"
       id="clipPath12330"><g
         id="g12336"
         transform="translate(-22)"><g
           id="g12334"><rect
             style="opacity:1;fill:#ffffff;fill-opacity:1;stroke:none;stroke-width:5;stroke-linecap:round;stroke-dasharray:none;stroke-opacity:1"
             id="rect12332"
             width="1920"
             height="1080"
             x="2074.7634"
             y="-3.9220791" /></g></g></clipPath></defs><g
     inkscape:label="Layer 1"
     inkscape:groupmode="layer"
     id="layer1"
     transform="translate(-1197.4254,4148.7324)"><g
       id="g16264"
       inkscape:export-filename="bg-one.svg"
       inkscape:export-xdpi="96"
       inkscape:export-ydpi="96"><g
         id="g16007"
         transform="translate(894.63357,-4144.8103)"><path
           id="path15997"
           style="fill:#7cd3cd;fill-opacity:1;stroke:none;stroke-width:5.77053;stroke-linecap:square;stroke-dasharray:none;stroke-opacity:1"
           d="m 3594.2588,1960.3542 739.1769,-739.177 c -3.2854,0.7192 -6.5563,1.5272 -9.895,1.9221 -5.0619,0.5985 -10.1665,0.8249 -15.2613,0.6804 -5.0949,-0.1444 -10.1798,-0.66 -15.1997,-1.5444 -5.0199,-0.8843 -9.9751,-2.1376 -14.8122,-3.7587 -4.837,-1.6212 -9.5468,-3.607 -14.0858,-5.9265 -4.5389,-2.3194 -8.9063,-4.9722 -13.0592,-7.9272 -4.1528,-2.9551 -8.0916,-6.2123 -11.7705,-9.7404 -3.6788,-3.5281 -7.0983,-7.3271 -10.2152,-11.3657 -2.9847,-3.8672 -5.6791,-7.9244 -8.1121,-12.1294 -2.4329,-4.2049 -4.6046,-8.5581 -6.5425,-13.0155 -1.9377,-4.4575 -3.642,-9.0197 -5.1413,-13.6445 -1.4992,-4.6247 -2.7933,-9.3115 -3.9106,-14.0184 -2.2338,-9.4105 -3.7917,-18.9267 -5.0088,-28.4738 -1.2171,-9.5471 -2.0934,-19.125 -2.9643,-28.6601 -0.8708,-9.5347 -1.7424,-19.0643 -2.9392,-28.5161 -1.1968,-9.4517 -2.7189,-18.8258 -4.892,-28.0505 -1.0861,-4.6107 -2.3431,-9.1919 -3.7953,-13.7025 -1.4521,-4.51051 -3.0994,-8.95006 -4.968,-13.27918 -1.8685,-4.32903 -3.9585,-8.5473 -6.2938,-12.61359 -2.3355,-4.06629 -4.9165,-7.98093 -7.769,-11.70315 -3.9717,-5.18278 -8.431,-9.93881 -13.2769,-14.28993 -4.8459,-4.35113 -10.0782,-8.29717 -15.5945,-11.85928 -5.5162,-3.5622 -11.3172,-6.74048 -17.3,-9.55624 -5.9828,-2.81585 -12.1476,-5.26926 -18.3932,-7.3814 -6.25,-2.11357 -12.5943,-3.91405 -19.0087,-5.47658 -6.4142,-1.56252 -12.8986,-2.88769 -19.4283,-4.05097 -13.0594,-2.32665 -26.3009,-4.00612 -39.528,-5.64709 -13.2281,-1.64105 -26.54,-3.26459 -39.7514,-5.50087 -6.6057,-1.11818 -13.1862,-2.38927 -19.7185,-3.89273 -6.5323,-1.50346 -13.0163,-3.23903 -19.4291,-5.28525 -6.4168,-2.04766 -12.7752,-4.43209 -18.9735,-7.18515 -6.1982,-2.75289 -12.237,-5.87438 -18.0128,-9.39639 -5.7758,-3.52209 -11.2888,-7.44444 -16.4383,-11.7992 -5.1495,-4.35476 -9.9349,-9.14193 -14.2541,-14.39308 -3.0094,-3.65876 -5.7588,-7.50054 -8.2732,-11.48678 -2.5145,-3.98632 -4.7942,-8.11642 -6.8635,-12.3522 -2.0693,-4.23578 -3.9281,-8.57751 -5.6019,-12.98474 -1.6739,-4.40714 -3.1627,-8.88029 -4.4909,-13.38085 -2.6554,-8.99833 -4.6971,-18.1274 -6.4278,-27.30259 -1.7308,-9.17511 -3.1506,-18.39633 -4.5632,-27.57838 -1.4126,-9.1817 -2.8248,-18.35698 -4.531,-27.44298 -1.7063,-9.086 -3.7067,-18.08281 -6.2961,-26.9086 -1.2943,-4.41145 -2.7424,-8.78644 -4.3669,-13.08789 -1.6246,-4.30136 -3.4252,-8.52953 -5.4243,-12.64659 -1.999,-4.11698 -4.1963,-8.12285 -6.6141,-11.98105 -2.4178,-3.85821 -5.0565,-7.56849 -7.9373,-11.09363 -3.2421,-3.96711 -6.7739,-7.67732 -10.5419,-11.14508 -3.768,-3.46777 -7.7726,-6.69343 -11.9596,-9.69163 -4.187,-2.99812 -8.556,-5.76869 -13.0549,-8.32687 -4.499,-2.55826 -9.1275,-4.90386 -13.8315,-7.05188 -9.4118,-4.2977 -19.1501,-7.8504 -29.0612,-10.9917 -9.9112,-3.1415 -19.9952,-5.8717 -30.0971,-8.5262 -10.1024,-2.6545 -20.2634,-5.2468 -30.355,-8.1321 -10.0917,-2.8854 -20.114,-6.0639 -29.9388,-9.8908 -4.9138,-1.9139 -9.7851,-3.9982 -14.5664,-6.281 -4.7814,-2.2827 -9.4725,-4.7635 -14.0263,-7.4688 -4.5539,-2.7051 -8.9705,-5.6348 -13.2018,-8.8162 -4.2313,-3.1813 -8.2777,-6.615 -12.0915,-10.3263 -4.976,-4.8423 -9.481,-10.0862 -13.5606,-15.641 -4.0797,-5.5548 -7.734,-11.4199 -11.0069,-17.5056 -3.2729,-6.0858 -6.1652,-12.3921 -8.7209,-18.8274 -2.5558,-6.4352 -4.7748,-12.9999 -6.703,-19.6032 -1.9273,-6.6001 -3.5843,-13.256 -5.0532,-19.9477 -1.4688,-6.6916 -2.7497,-13.4189 -3.922,-20.1618 -2.3448,-13.4861 -4.2585,-27.0346 -6.3892,-40.4851 -2.1306,-13.4492 -4.506,-26.8991 -7.7167,-40.0674 -1.6053,-6.5842 -3.4188,-13.0981 -5.5159,-19.5065 -2.0973,-6.4082 -4.4777,-12.7106 -7.2145,-18.8725 -2.7346,-6.1563 -5.8599,-12.1796 -9.3757,-17.9532 -3.5158,-5.7737 -7.4223,-11.2977 -11.7168,-16.4548 -4.2945,-5.1572 -8.9772,-9.9473 -14.0477,-14.2542 -5.0706,-4.3068 -10.5286,-8.1306 -16.3724,-11.3535 -4.7317,-2.6096 -9.6651,-4.8009 -14.7448,-6.6242 -5.0798,-1.8233 -10.3057,-3.2791 -15.6239,-4.4157 -5.3181,-1.1364 -10.7283,-1.9535 -16.1753,-2.5029 -5.4471,-0.5494 -10.9311,-0.8307 -16.3974,-0.8926 -10.9384,-0.1238 -21.8793,0.5835 -32.8387,1.604 -10.9593,1.0204 -21.9371,2.3539 -32.9489,3.4836 -11.013,1.1298 -22.1397,2.0537 -33.2756,2.24 -5.568,0.093 -11.1379,0 -16.6976,-0.3402 -5.5597,-0.3422 -11.109,-0.9353 -16.6346,-1.846 -5.5311,-0.9117 -11.0477,-2.1663 -16.4562,-3.7911 -5.4085,-1.6247 -10.7088,-3.6197 -15.8072,-6.013 -5.0982,-2.3934 -9.9952,-5.1848 -14.5957,-8.4022 -4.6007,-3.2175 -8.9054,-6.861 -12.8207,-10.9582 -2.8433,-2.9752 -5.4448,-6.1511 -7.8155,-9.4874 -2.3707,-3.3363 -4.5112,-6.8325 -6.4322,-10.4481 -1.9209,-3.6156 -3.6224,-7.3506 -5.1162,-11.1637 -1.4939,-3.8132 -2.7796,-7.7051 -3.8691,-11.6345 -2.1777,-7.8541 -3.5994,-15.8621 -4.4873,-23.9248 -0.8878,-8.0629 -1.2418,-16.1804 -1.2866,-24.2531 -0.089,-16.1433 1.021,-32.2694 1.5331,-48.2683 0.256,-7.9994 0.3625,-15.9668 0.094,-23.8891 -0.268,-7.9223 -0.9103,-15.7993 -2.152,-23.6169 -0.7698,-4.8477 -1.7762,-9.6662 -3.0316,-14.4146 -1.2553,-4.7482 -2.7603,-9.4262 -4.5258,-13.9919 -1.7657,-4.5656 -3.7921,-9.0195 -6.0928,-13.3192 -2.3005,-4.2998 -4.8746,-8.4454 -7.7351,-12.3959 -2.8583,-3.9474 -6.0162,-7.6931 -9.4345,-11.1781 -3.4184,-3.4851 -7.0979,-6.709 -11.0005,-9.6121 -3.9024,-2.903 -8.028,-5.4849 -12.3385,-7.6865 -4.3106,-2.2016 -8.8056,-4.023 -13.4482,-5.4035 -5.8919,-1.752 -11.9094,-2.7871 -18.0121,-3.2981 -6.1027,-0.5111 -12.291,-0.4975 -18.525,-0.1548 -6.234,0.3428 -12.5138,1.0154 -18.7994,1.8246 -6.2857,0.8093 -12.5768,1.7549 -18.8345,2.6434 -6.2609,0.8889 -12.569,1.7136 -18.9141,2.2643 -6.345,0.5508 -12.7269,0.8274 -19.1361,0.6183 -6.4127,-0.2092 -12.8695,-0.9207 -19.1755,-2.3096 -3.1529,-0.6944 -6.2677,-1.5583 -9.3212,-2.6132 -3.0536,-1.055 -6.0452,-2.301 -8.9509,-3.7602 -4.1993,-2.1087 -8.145,-4.6305 -11.8242,-7.4903 -3.6794,-2.8597 -7.0923,-6.0574 -10.2282,-9.5175 -3.1359,-3.4601 -5.9948,-7.1827 -8.5641,-11.0928 -2.5692,-3.9102 -4.8484,-8.0078 -6.8276,-12.2175 -1.9769,-4.2047 -3.6708,-8.5154 -5.1184,-12.9038 -1.4475,-4.3882 -2.6494,-8.854 -3.6419,-13.3672 -1.9852,-9.0263 -3.1341,-18.244 -3.7445,-27.4172 -0.6102,-9.1707 -0.708,-18.3545 -0.6225,-27.5232 0.086,-9.1687 0.3542,-18.3226 0.4771,-27.4308 0.1229,-9.1084 0.1,-18.172 -0.3983,-27.1616 -0.4982,-8.9894 -1.4718,-17.9049 -3.2494,-26.7172 -1.3361,-6.6233 -3.1306,-13.1528 -5.3548,-19.5344 -2.2241,-6.3815 -4.8782,-12.6146 -7.9344,-18.6439 -3.0561,-6.0294 -6.5135,-11.8554 -10.3456,-17.4219 -3.8322,-5.5665 -8.0387,-10.8742 -12.5908,-15.8673 -4.552,-4.9931 -9.4493,-9.6707 -14.6387,-13.9998 -5.1894,-4.3293 -10.6714,-8.3097 -16.3932,-11.9088 -5.7217,-3.5991 -11.683,-6.8168 -17.8323,-9.6199 -6.1493,-2.8032 -12.4859,-5.1923 -18.9577,-7.1336 -6.4718,-1.9412 -13.0775,-3.4346 -19.7544,-4.4787 -6.6768,-1.044 -13.4253,-1.6388 -20.1834,-1.7829 -6.758,-0.1442 -13.5261,0.1628 -20.2414,0.9212 -6.7153,0.7584 -13.3775,1.9685 -19.9262,3.632 -6.5487,1.6634 -12.9818,3.7804 -19.245,6.3189 -6.2632,2.5386 -12.3562,5.4986 -18.2263,8.8507 -5.8702,3.3519 -11.5174,7.0948 -16.8867,11.1988 -5.3694,4.104 -10.4612,8.5691 -15.2219,13.3637 l -1.4592,1.4693 -0.8983,-0.891 -681.2658,681.2657 z"
           clip-path="url(#clipPath12299)"
           transform="translate(60)" /><path
           id="path15999"
           style="fill:#3dbeb5;fill-opacity:1;stroke:none;stroke-width:5.77053;stroke-linecap:square;stroke-dasharray:none;stroke-opacity:1"
           d="m 3534.2588,2020.3542 739.1769,-739.177 c -3.2854,0.7192 -6.5563,1.5272 -9.895,1.9221 -5.0619,0.5985 -10.1665,0.8249 -15.2613,0.6804 -5.0949,-0.1444 -10.1798,-0.66 -15.1997,-1.5444 -5.0199,-0.8843 -9.9751,-2.1376 -14.8122,-3.7587 -4.837,-1.6212 -9.5468,-3.607 -14.0858,-5.9265 -4.5389,-2.3194 -8.9063,-4.9722 -13.0592,-7.9272 -4.1528,-2.9551 -8.0916,-6.2123 -11.7705,-9.7404 -3.6788,-3.5281 -7.0983,-7.3271 -10.2152,-11.3657 -2.9847,-3.8672 -5.6791,-7.9244 -8.1121,-12.1294 -2.4329,-4.2049 -4.6046,-8.5581 -6.5425,-13.0155 -1.9377,-4.4575 -3.642,-9.0197 -5.1413,-13.6445 -1.4992,-4.6247 -2.7933,-9.3115 -3.9106,-14.0184 -2.2338,-9.4105 -3.7917,-18.9267 -5.0088,-28.4738 -1.2171,-9.5471 -2.0934,-19.125 -2.9643,-28.6601 -0.8708,-9.5347 -1.7424,-19.0643 -2.9392,-28.5161 -1.1968,-9.4517 -2.7189,-18.8258 -4.892,-28.0505 -1.0861,-4.6107 -2.3431,-9.1919 -3.7953,-13.7025 -1.4521,-4.5105 -3.0994,-8.95 -4.968,-13.2792 -1.8685,-4.329 -3.9585,-8.5473 -6.2938,-12.6136 -2.3355,-4.0662 -4.9165,-7.9809 -7.769,-11.7031 -3.9717,-5.1828 -8.431,-9.9388 -13.2769,-14.2899 -4.8459,-4.3512 -10.0782,-8.2972 -15.5944,-11.85933 -5.5163,-3.5622 -11.3173,-6.74048 -17.3001,-9.55624 -5.9828,-2.81585 -12.1476,-5.26926 -18.3932,-7.3814 -6.25,-2.11357 -12.5943,-3.91405 -19.0087,-5.47658 -6.4142,-1.56252 -12.8986,-2.88769 -19.4283,-4.05097 -13.0594,-2.32665 -26.3009,-4.00612 -39.528,-5.64709 -13.2281,-1.64105 -26.54,-3.26459 -39.7514,-5.50087 -6.6057,-1.11818 -13.1862,-2.38927 -19.7185,-3.89273 -6.5323,-1.50346 -13.0163,-3.23903 -19.4291,-5.28525 -6.4168,-2.04766 -12.7752,-4.43209 -18.9735,-7.18515 -6.1982,-2.75289 -12.237,-5.87438 -18.0128,-9.39639 -5.7758,-3.52209 -11.2888,-7.44444 -16.4383,-11.7992 -5.1495,-4.35476 -9.9349,-9.14193 -14.2541,-14.39308 -3.0094,-3.65876 -5.7588,-7.50054 -8.2732,-11.48678 -2.5145,-3.98632 -4.7942,-8.11642 -6.8635,-12.3522 -2.0693,-4.23578 -3.9281,-8.57751 -5.6019,-12.98474 -1.6739,-4.40714 -3.1627,-8.88029 -4.4909,-13.38085 -2.6554,-8.99833 -4.6971,-18.1274 -6.4278,-27.30259 -1.7308,-9.17511 -3.1506,-18.39633 -4.5632,-27.57838 -1.4126,-9.1817 -2.8248,-18.35698 -4.531,-27.44298 -1.7063,-9.086 -3.7067,-18.08281 -6.2961,-26.9086 -1.2943,-4.41145 -2.7424,-8.78644 -4.3669,-13.08789 -1.6246,-4.30136 -3.4252,-8.52953 -5.4243,-12.64659 -1.999,-4.11698 -4.1963,-8.12285 -6.6141,-11.98105 -2.4178,-3.85821 -5.0565,-7.56849 -7.9373,-11.09363 -3.2421,-3.96711 -6.7739,-7.67732 -10.5419,-11.14508 -3.768,-3.46777 -7.7726,-6.69343 -11.9596,-9.69163 -4.187,-2.99812 -8.556,-5.76869 -13.0549,-8.32687 -4.499,-2.55826 -9.1275,-4.90386 -13.8315,-7.05188 -9.4118,-4.29773 -19.1501,-7.85037 -29.0612,-10.99175 -9.9112,-3.14146 -19.9952,-5.87167 -30.0971,-8.52615 -10.1024,-2.65455 -20.2634,-5.24683 -30.355,-8.13215 -10.0917,-2.88532 -20.114,-6.06385 -29.9388,-9.89074 -4.9138,-1.91396 -9.7851,-3.99826 -14.5664,-6.28099 -4.7814,-2.28273 -9.4725,-4.76356 -14.0263,-7.46881 -4.5539,-2.70516 -8.9705,-5.63482 -13.2018,-8.81621 -4.2313,-3.1813 -8.2777,-6.615 -12.0915,-10.3263 -4.976,-4.8423 -9.481,-10.0862 -13.5606,-15.641 -4.0797,-5.5548 -7.734,-11.4199 -11.0069,-17.5056 -3.2729,-6.0858 -6.1652,-12.3921 -8.7209,-18.8274 -2.5558,-6.4352 -4.7748,-12.9999 -6.703,-19.6032 -1.9273,-6.6001 -3.5843,-13.256 -5.0532,-19.9477 -1.4688,-6.6916 -2.7497,-13.4189 -3.922,-20.1618 -2.3448,-13.4861 -4.2585,-27.0346 -6.3892,-40.4851 -2.1306,-13.4492 -4.506,-26.8991 -7.7167,-40.0674 -1.6053,-6.5842 -3.4188,-13.0981 -5.5159,-19.5065 -2.0973,-6.4082 -4.4777,-12.7106 -7.2145,-18.8725 -2.7346,-6.1563 -5.8599,-12.1796 -9.3757,-17.9532 -3.5158,-5.7737 -7.4223,-11.2977 -11.7168,-16.4548 -4.2945,-5.1572 -8.9772,-9.9473 -14.0477,-14.2542 -5.0706,-4.3068 -10.5286,-8.1306 -16.3724,-11.3535 -4.7317,-2.6096 -9.6651,-4.8009 -14.7448,-6.6242 -5.0798,-1.8233 -10.3057,-3.2791 -15.6239,-4.4157 -5.3181,-1.1364 -10.7283,-1.9535 -16.1753,-2.5029 -5.4471,-0.5494 -10.9311,-0.8307 -16.3974,-0.8926 -10.9384,-0.1238 -21.8793,0.5835 -32.8387,1.604 -10.9593,1.0204 -21.9371,2.3539 -32.9489,3.4836 -11.013,1.1298 -22.1397,2.0537 -33.2756,2.24 -5.568,0.093 -11.1379,0 -16.6976,-0.3402 -5.5597,-0.3422 -11.109,-0.9353 -16.6346,-1.846 -5.5311,-0.9117 -11.0477,-2.1663 -16.4562,-3.7911 -5.4085,-1.6247 -10.7088,-3.6197 -15.8072,-6.013 -5.0982,-2.3934 -9.9952,-5.1848 -14.5957,-8.4022 -4.6007,-3.2175 -8.9054,-6.861 -12.8207,-10.9582 -2.8433,-2.9752 -5.4448,-6.1511 -7.8155,-9.4874 -2.3707,-3.3363 -4.5112,-6.8325 -6.4322,-10.4481 -1.9209,-3.6156 -3.6224,-7.3506 -5.1162,-11.1637 -1.4939,-3.8132 -2.7796,-7.7051 -3.8691,-11.6345 -2.1777,-7.8541 -3.5994,-15.8621 -4.4873,-23.9248 -0.8878,-8.0629 -1.2418,-16.1804 -1.2866,-24.2531 -0.089,-16.1433 1.021,-32.2694 1.5331,-48.2682 0.256,-7.9995 0.3625,-15.9669 0.094,-23.8892 -0.268,-7.9223 -0.9103,-15.7993 -2.152,-23.6169 -0.7698,-4.8477 -1.7762,-9.6662 -3.0316,-14.4146 -1.2553,-4.7482 -2.7603,-9.4262 -4.5258,-13.9919 -1.7657,-4.5656 -3.7921,-9.0195 -6.0928,-13.3192 -2.3005,-4.2998 -4.8746,-8.4454 -7.7351,-12.3959 -2.8583,-3.9474 -6.0162,-7.6931 -9.4345,-11.1781 -3.4184,-3.4851 -7.0979,-6.709 -11.0005,-9.6121 -3.9024,-2.903 -8.028,-5.4849 -12.3385,-7.6865 -4.3106,-2.2016 -8.8056,-4.023 -13.4482,-5.4035 -5.8919,-1.752 -11.9094,-2.7871 -18.0121,-3.2981 -6.1027,-0.5111 -12.291,-0.4975 -18.525,-0.1548 -6.234,0.3428 -12.5138,1.0154 -18.7994,1.8246 -6.2857,0.8093 -12.5768,1.7549 -18.8345,2.6434 -6.2609,0.8889 -12.569,1.7136 -18.9141,2.2643 -6.345,0.5508 -12.7269,0.8274 -19.1361,0.6183 -6.4127,-0.2092 -12.8695,-0.9207 -19.1755,-2.3096 -3.1529,-0.6944 -6.2677,-1.5583 -9.3212,-2.6132 -3.0536,-1.055 -6.0452,-2.301 -8.9509,-3.7602 -4.1993,-2.1087 -8.145,-4.6305 -11.8242,-7.4903 -3.6794,-2.8597 -7.0923,-6.0574 -10.2282,-9.5175 -3.1359,-3.4601 -5.9948,-7.1827 -8.5641,-11.0928 -2.5692,-3.9102 -4.8484,-8.0078 -6.8276,-12.2175 -1.9769,-4.2047 -3.6708,-8.5154 -5.1184,-12.9038 -1.4475,-4.3882 -2.6494,-8.854 -3.6419,-13.3672 -1.9852,-9.0263 -3.1341,-18.244 -3.7445,-27.4172 -0.6102,-9.1707 -0.708,-18.3545 -0.6225,-27.5232 0.086,-9.1687 0.3542,-18.3226 0.4771,-27.4308 0.1229,-9.1084 0.1,-18.172 -0.3983,-27.1616 -0.4982,-8.9894 -1.4718,-17.9049 -3.2494,-26.7172 -1.3361,-6.6233 -3.1306,-13.1528 -5.3548,-19.5344 -2.2241,-6.3815 -4.8782,-12.6146 -7.9344,-18.6439 -3.0561,-6.0294 -6.5135,-11.8554 -10.3456,-17.4219 -3.8322,-5.5665 -8.0387,-10.8742 -12.5908,-15.8673 -4.552,-4.9931 -9.4493,-9.6707 -14.6387,-13.9998 -5.1894,-4.3293 -10.6714,-8.3097 -16.3932,-11.9088 -5.7217,-3.5991 -11.683,-6.8168 -17.8323,-9.6199 -6.1493,-2.8032 -12.4859,-5.1923 -18.9577,-7.1336 -6.4718,-1.9412 -13.0775,-3.4346 -19.7544,-4.4787 -6.6768,-1.044 -13.4253,-1.6388 -20.1834,-1.7829 -6.758,-0.1442 -13.5261,0.1628 -20.2414,0.9212 -6.7153,0.7584 -13.3775,1.9685 -19.9262,3.632 -6.5487,1.6634 -12.9818,3.7804 -19.245,6.3189 -6.2632,2.5386 -12.3562,5.4986 -18.2263,8.8507 -5.8702,3.3519 -11.5174,7.0948 -16.8867,11.1988 -5.3694,4.104 -10.4612,8.5691 -15.2219,13.3637 l -1.4592,1.4693 -0.8983,-0.891 -681.2658,681.2657 z"
           clip-path="url(#clipPath12330)"
           transform="translate(22)" /><g
           id="g16005"
           clip-path="url(#clipPath12322)"><path
             id="path16001"
             style="fill:#07aba0;fill-opacity:1;stroke:none;stroke-width:5.77053;stroke-linecap:square;stroke-dasharray:none;stroke-opacity:1"
             d="m 3474.2588,2080.3542 739.1769,-739.177 c -3.2854,0.7192 -6.5563,1.5272 -9.895,1.9221 -5.0619,0.5985 -10.1665,0.8249 -15.2613,0.6804 -5.0949,-0.1444 -10.1798,-0.66 -15.1997,-1.5444 -5.0199,-0.8843 -9.9751,-2.1376 -14.8122,-3.7587 -4.837,-1.6212 -9.5468,-3.607 -14.0858,-5.9265 -4.5389,-2.3194 -8.9063,-4.9722 -13.0592,-7.9272 -4.1528,-2.9551 -8.0916,-6.2123 -11.7705,-9.7404 -3.6788,-3.5281 -7.0983,-7.3271 -10.2152,-11.3657 -2.9847,-3.8672 -5.6791,-7.9244 -8.112,-12.1294 -2.433,-4.2049 -4.6047,-8.5581 -6.5426,-13.0155 -1.9377,-4.4575 -3.642,-9.0197 -5.1413,-13.6445 -1.4992,-4.6247 -2.7933,-9.3115 -3.9106,-14.0184 -2.2338,-9.4105 -3.7917,-18.9267 -5.0088,-28.4738 -1.2171,-9.5471 -2.0933,-19.125 -2.9643,-28.6601 -0.8708,-9.5347 -1.7424,-19.0643 -2.9392,-28.5161 -1.1968,-9.4517 -2.7189,-18.8258 -4.892,-28.0505 -1.0861,-4.6107 -2.3431,-9.1919 -3.7952,-13.7025 -1.4522,-4.5105 -3.0995,-8.95 -4.9681,-13.2792 -1.8685,-4.329 -3.9585,-8.5473 -6.2938,-12.6136 -2.3355,-4.0662 -4.9165,-7.9809 -7.769,-11.7031 -3.9717,-5.1828 -8.431,-9.9388 -13.2769,-14.2899 -4.8459,-4.3512 -10.0782,-8.2972 -15.5944,-11.8593 -5.5163,-3.5622 -11.3173,-6.7405 -17.3001,-9.5563 -5.9828,-2.8158 -12.1476,-5.2692 -18.3932,-7.3814 -6.25,-2.1135 -12.5943,-3.914 -19.0087,-5.4765 -6.4142,-1.5626 -12.8986,-2.8877 -19.4283,-4.051 -13.0594,-2.3267 -26.3009,-4.0061 -39.528,-5.6471 -13.2281,-1.641 -26.54,-3.2646 -39.7514,-5.5009 -6.6057,-1.1182 -13.1862,-2.3892 -19.7185,-3.8927 -6.5323,-1.5035 -13.0163,-3.239 -19.4291,-5.2853 -6.4168,-2.0476 -12.7752,-4.4321 -18.9735,-7.1851 -6.1982,-2.7529 -12.237,-5.87439 -18.0128,-9.3964 -5.7758,-3.52209 -11.2888,-7.44444 -16.4383,-11.7992 -5.1495,-4.35476 -9.9349,-9.14193 -14.2541,-14.39308 -3.0094,-3.65876 -5.7588,-7.50054 -8.2732,-11.48678 -2.5145,-3.98632 -4.7942,-8.11642 -6.8635,-12.3522 -2.0693,-4.23578 -3.9281,-8.57751 -5.6019,-12.98474 -1.6739,-4.40714 -3.1627,-8.88029 -4.4909,-13.38085 -2.6554,-8.99833 -4.6971,-18.1274 -6.4278,-27.30259 -1.7308,-9.17511 -3.1506,-18.39633 -4.5632,-27.57838 -1.4126,-9.1817 -2.8248,-18.35698 -4.531,-27.44298 -1.7063,-9.086 -3.7067,-18.08281 -6.2961,-26.9086 -1.2943,-4.41145 -2.7424,-8.78644 -4.3669,-13.08789 -1.6246,-4.30136 -3.4252,-8.52953 -5.4243,-12.64659 -1.999,-4.11698 -4.1963,-8.12285 -6.6141,-11.98105 -2.4178,-3.85821 -5.0565,-7.56849 -7.9373,-11.09363 -3.2421,-3.96711 -6.7739,-7.67732 -10.5419,-11.14508 -3.768,-3.46777 -7.7726,-6.69343 -11.9596,-9.69163 -4.187,-2.99812 -8.556,-5.76869 -13.0549,-8.32687 -4.499,-2.55826 -9.1275,-4.90386 -13.8315,-7.05188 -9.4118,-4.29773 -19.1501,-7.85037 -29.0612,-10.99175 -9.9112,-3.14146 -19.9952,-5.87167 -30.0971,-8.52615 -10.1024,-2.65455 -20.2634,-5.24683 -30.355,-8.13215 -10.0917,-2.88532 -20.114,-6.06385 -29.9388,-9.89074 -4.9138,-1.91396 -9.7851,-3.99826 -14.5664,-6.28099 -4.7814,-2.28273 -9.4725,-4.76356 -14.0263,-7.46881 -4.5539,-2.70516 -8.9705,-5.63482 -13.2018,-8.81623 -4.2313,-3.18132 -8.2777,-6.61498 -12.0915,-10.32629 -4.976,-4.84234 -9.481,-10.08621 -13.5606,-15.64098 -4.0797,-5.55477 -7.734,-11.41993 -11.0069,-17.50561 -3.2729,-6.08577 -6.1652,-12.39214 -8.7209,-18.8274 -2.5558,-6.4352 -4.7748,-12.9999 -6.703,-19.6032 -1.9273,-6.6001 -3.5843,-13.256 -5.0532,-19.9477 -1.4688,-6.6916 -2.7497,-13.4189 -3.922,-20.1618 -2.3448,-13.4861 -4.2585,-27.0346 -6.3892,-40.4851 -2.1306,-13.4492 -4.506,-26.8991 -7.7167,-40.0674 -1.6053,-6.5842 -3.4188,-13.0981 -5.5159,-19.5065 -2.0973,-6.4082 -4.4777,-12.7106 -7.2145,-18.8725 -2.7346,-6.1563 -5.8599,-12.1796 -9.3757,-17.9532 -3.5158,-5.7737 -7.4223,-11.2977 -11.7168,-16.4548 -4.2945,-5.1572 -8.9772,-9.9473 -14.0477,-14.2542 -5.0706,-4.3068 -10.5286,-8.1306 -16.3724,-11.3535 -4.7317,-2.6096 -9.6651,-4.8009 -14.7448,-6.6242 -5.0798,-1.8233 -10.3057,-3.2791 -15.6239,-4.4157 -5.3181,-1.1364 -10.7283,-1.9535 -16.1753,-2.5029 -5.4471,-0.5494 -10.9311,-0.8307 -16.3974,-0.8926 -10.9384,-0.1238 -21.8793,0.5835 -32.8387,1.604 -10.9593,1.0204 -21.9371,2.3539 -32.9489,3.4836 -11.013,1.1298 -22.1397,2.0537 -33.2756,2.24 -5.568,0.093 -11.1379,0 -16.6976,-0.3402 -5.5597,-0.3422 -11.109,-0.9353 -16.6346,-1.846 -5.5311,-0.9117 -11.0477,-2.1663 -16.4562,-3.7911 -5.4085,-1.6247 -10.7088,-3.6197 -15.8072,-6.013 -5.0982,-2.3934 -9.9952,-5.1848 -14.5957,-8.4022 -4.6007,-3.2175 -8.9054,-6.861 -12.8207,-10.9582 -2.8433,-2.9752 -5.4448,-6.1511 -7.8155,-9.4874 -2.3707,-3.3363 -4.5112,-6.8325 -6.4322,-10.4481 -1.9209,-3.6156 -3.6224,-7.3506 -5.1162,-11.1637 -1.4939,-3.8132 -2.7796,-7.7051 -3.8691,-11.6345 -2.1777,-7.8541 -3.5994,-15.8621 -4.4873,-23.9248 -0.8878,-8.0629 -1.2418,-16.1804 -1.2866,-24.2531 -0.089,-16.1433 1.021,-32.2694 1.5331,-48.2682 0.256,-7.9995 0.3625,-15.9669 0.094,-23.8892 -0.268,-7.9223 -0.9103,-15.7993 -2.152,-23.6169 -0.7698,-4.8477 -1.7762,-9.6662 -3.0316,-14.4146 -1.2553,-4.7482 -2.7603,-9.4262 -4.5258,-13.9919 -1.7657,-4.5656 -3.7921,-9.0195 -6.0928,-13.3192 -2.3005,-4.2998 -4.8746,-8.4454 -7.7351,-12.3959 -2.8583,-3.9474 -6.0162,-7.6931 -9.4345,-11.1781 -3.4184,-3.4851 -7.0979,-6.709 -11.0005,-9.6121 -3.9024,-2.903 -8.028,-5.4849 -12.3385,-7.6865 -4.3106,-2.2016 -8.8056,-4.023 -13.4482,-5.4035 -5.8919,-1.752 -11.9094,-2.7871 -18.0121,-3.2981 -6.1027,-0.5111 -12.291,-0.4975 -18.525,-0.1548 -6.234,0.3428 -12.5138,1.0154 -18.7994,1.8246 -6.2857,0.8093 -12.5768,1.7549 -18.8345,2.6434 -6.2609,0.8889 -12.569,1.7136 -18.9141,2.2643 -6.345,0.5508 -12.7269,0.8274 -19.1361,0.6183 -6.4127,-0.2092 -12.8695,-0.9207 -19.1755,-2.3096 -3.1529,-0.6944 -6.2677,-1.5583 -9.3212,-2.6132 -3.0536,-1.055 -6.0452,-2.301 -8.9509,-3.7602 -4.1993,-2.1087 -8.145,-4.6305 -11.8242,-7.4903 -3.6794,-2.8597 -7.0923,-6.0574 -10.2282,-9.5175 -3.1359,-3.4601 -5.9948,-7.1827 -8.5641,-11.0928 -2.5692,-3.9102 -4.8484,-8.0078 -6.8276,-12.2175 -1.9769,-4.2047 -3.6708,-8.5154 -5.1184,-12.9038 -1.4475,-4.3882 -2.6494,-8.854 -3.6419,-13.3672 -1.9852,-9.0263 -3.1341,-18.244 -3.7445,-27.4172 -0.6102,-9.1707 -0.708,-18.3545 -0.6225,-27.5232 0.086,-9.1687 0.3542,-18.3226 0.4771,-27.4308 0.1229,-9.1084 0.1,-18.172 -0.3983,-27.1616 -0.4982,-8.9894 -1.4718,-17.9049 -3.2494,-26.7172 -1.3361,-6.6233 -3.1306,-13.1528 -5.3548,-19.5344 -2.2241,-6.3815 -4.8782,-12.6146 -7.9344,-18.6439 -3.0561,-6.0294 -6.5135,-11.8554 -10.3456,-17.4219 -3.8322,-5.5665 -8.0387,-10.8742 -12.5908,-15.8673 -4.552,-4.9931 -9.4493,-9.6707 -14.6387,-13.9998 -5.1894,-4.3293 -10.6714,-8.3097 -16.3932,-11.9088 -5.7217,-3.5991 -11.683,-6.8168 -17.8323,-9.6199 -6.1493,-2.8032 -12.4859,-5.1923 -18.9577,-7.1336 -6.4718,-1.9412 -13.0775,-3.4346 -19.7544,-4.4787 -6.6768,-1.044 -13.4253,-1.6388 -20.1834,-1.7829 -6.758,-0.1442 -13.5261,0.1628 -20.2414,0.9212 -6.7153,0.7584 -13.3775,1.9685 -19.9262,3.632 -6.5487,1.6634 -12.9818,3.7804 -19.245,6.3189 -6.2632,2.5386 -12.3562,5.4986 -18.2263,8.8507 -5.8702,3.3519 -11.5174,7.0948 -16.8867,11.1988 -5.3694,4.104 -10.4612,8.5691 -15.2219,13.3637 l -1.4592,1.4693 -0.8983,-0.891 -681.2658,681.2657 z"
             clip-path="url(#clipPath11885)" /><rect
             style="opacity:1;fill:#07aba0;fill-opacity:1;stroke:none;stroke-width:5.10241;stroke-linecap:round;stroke-dasharray:none;stroke-opacity:1"
             id="rect16003"
             width="486.7012"
             height="1080"
             x="2074.7632"
             y="-3.9220791" /></g></g><g
         id="g16015"
         transform="translate(424.4501,-4678.3267)"
         clip-path="url(#clipPath3437)"><path
           id="path16009"
           style="opacity:1;fill:#7cd3cd;fill-opacity:1;stroke:none;stroke-width:5.77053;stroke-linecap:square;stroke-dasharray:none;stroke-opacity:1"
           d="M 1512.1522,-354.28373 772.97526,384.89329 c 3.2854,-0.7192 6.55634,-1.52724 9.89506,-1.92208 5.06185,-0.59853 10.16644,-0.82497 15.26129,-0.68044 5.09486,0.14437 10.17981,0.66004 15.19969,1.54442 5.01988,0.88429 9.97511,2.13761 14.81221,3.75869 4.83702,1.62117 9.54676,3.60705 14.08575,5.92651 4.53889,2.31937 8.90634,4.97215 13.0592,7.9272 4.15285,2.95505 8.09162,6.21227 11.77051,9.74037 3.67881,3.5281 7.09834,7.32716 10.21527,11.36569 2.98466,3.86726 5.67907,7.92441 8.11201,12.12939 2.43294,4.2049 4.60465,8.55813 6.54255,13.01555 1.93774,4.45749 3.642,9.01974 5.14131,13.64453 1.49923,4.6247 2.79326,9.31151 3.91059,14.01838 2.23382,9.41044 3.79169,18.92673 5.0088,28.47383 1.2171,9.5471 2.09335,19.12499 2.96427,28.66007 0.87083,9.53466 1.74242,19.06433 2.93922,28.51606 1.19679,9.45173 2.71887,18.82578 4.89202,28.05048 1.08611,4.61074 2.34306,9.19195 3.79524,13.70258 1.45218,4.51047 3.09941,8.95002 4.96801,13.27914 1.86852,4.32903 3.95857,8.5473 6.29385,12.61359 2.33545,4.06629 4.91648,7.98093 7.76896,11.70315 3.97177,5.18278 8.43104,9.93881 13.27694,14.28993 4.8459,4.35113 10.07818,8.29717 15.59444,11.85928 5.51627,3.5622 11.31729,6.74048 17.30007,9.55624 5.98278,2.81585 12.14758,5.26926 18.39318,7.3814 6.25,2.11357 12.5943,3.91405 19.0087,5.47658 6.4142,1.56252 12.8986,2.88769 19.4283,4.05097 13.0594,2.32665 26.3009,4.00612 39.528,5.64709 13.2281,1.64105 26.54,3.26459 39.7514,5.50087 6.6057,1.11818 13.1862,2.38927 19.7185,3.89273 6.5323,1.50346 13.0163,3.23903 19.4291,5.28525 6.4168,2.04766 12.7752,4.43209 18.9735,7.18515 6.1982,2.75289 12.237,5.87438 18.0128,9.39639 5.7758,3.52209 11.2888,7.44444 16.4383,11.7992 5.1495,4.35476 9.9349,9.14193 14.2541,14.39308 3.0094,3.65876 5.7588,7.50054 8.2732,11.48678 2.5145,3.98632 4.7942,8.11642 6.8635,12.3522 2.0693,4.23578 3.9281,8.57751 5.6019,12.98474 1.6739,4.40714 3.1627,8.88029 4.4909,13.38085 2.6554,8.99833 4.6971,18.1274 6.4278,27.30259 1.7308,9.17511 3.1506,18.39633 4.5632,27.57838 1.4126,9.1817 2.8248,18.35698 4.531,27.44298 1.7063,9.086 3.7067,18.08281 6.2961,26.9086 1.2943,4.41145 2.7424,8.78644 4.3669,13.08789 1.6246,4.30136 3.4252,8.52953 5.4243,12.64659 1.999,4.11698 4.1963,8.12285 6.6141,11.98105 2.4178,3.85821 5.0565,7.56849 7.9373,11.09363 3.2421,3.96711 6.7739,7.67732 10.5419,11.14508 3.768,3.46777 7.7726,6.69343 11.9596,9.69163 4.187,2.99812 8.556,5.76869 13.0549,8.32687 4.499,2.55826 9.1275,4.90386 13.8315,7.05188 9.4118,4.2977 19.1501,7.8504 29.0612,10.9917 9.9112,3.1415 19.9952,5.8717 30.0971,8.5262 10.1024,2.6545 20.2634,5.2468 30.355,8.1321 10.0917,2.8854 20.114,6.0639 29.9388,9.8908 4.9138,1.9139 9.7851,3.9982 14.5664,6.281 4.7814,2.2827 9.4725,4.7635 14.0263,7.4688 4.5539,2.7051 8.9705,5.6348 13.2018,8.8162 4.2313,3.1813 8.2777,6.615 12.0915,10.3263 4.976,4.8423 9.481,10.0862 13.5606,15.641 4.0797,5.5548 7.734,11.4199 11.0069,17.5056 3.2729,6.0858 6.1652,12.3921 8.7209,18.8274 2.5558,6.4352 4.7748,12.9999 6.703,19.6032 1.9273,6.6001 3.5843,13.256 5.0532,19.9477 1.4688,6.6916 2.7497,13.4189 3.922,20.1618 2.3448,13.4861 4.2585,27.0346 6.3892,40.4851 2.1306,13.4492 4.506,26.8991 7.7167,40.0674 1.6053,6.5842 3.4188,13.0981 5.5159,19.5065 2.0973,6.4082 4.4777,12.7106 7.2145,18.8725 2.7346,6.1563 5.8599,12.1796 9.3757,17.9532 3.5158,5.7737 7.4223,11.2977 11.7168,16.4548 4.2945,5.1572 8.9772,9.9473 14.0477,14.2542 5.0706,4.3068 10.5286,8.1306 16.3724,11.3535 4.7317,2.6096 9.6651,4.8009 14.7448,6.6242 5.0798,1.8233 10.3057,3.2791 15.6239,4.4157 5.3181,1.1364 10.7283,1.9535 16.1753,2.5029 5.4471,0.5494 10.9311,0.8307 16.3974,0.8926 10.9384,0.1238 21.8793,-0.5835 32.8387,-1.604 10.9593,-1.0204 21.9371,-2.3539 32.9489,-3.4836 11.013,-1.1298 22.1397,-2.0537 33.2756,-2.24 5.568,-0.093 11.1379,0 16.6976,0.3402 5.5597,0.3422 11.109,0.9353 16.6346,1.846 5.5311,0.9117 11.0477,2.1663 16.4562,3.7911 5.4085,1.6247 10.7088,3.6197 15.8072,6.013 5.0982,2.3934 9.9952,5.1848 14.5957,8.4022 4.6007,3.2175 8.9054,6.861 12.8207,10.9582 2.8433,2.9752 5.4448,6.1511 7.8155,9.4874 2.3707,3.3363 4.5112,6.8325 6.4322,10.4481 1.9209,3.6156 3.6224,7.3506 5.1162,11.1637 1.4939,3.8132 2.7796,7.7051 3.8691,11.6345 2.1777,7.8541 3.5994,15.8621 4.4873,23.9248 0.8878,8.0629 1.2418,16.1804 1.2866,24.2531 0.089,16.1433 -1.021,32.2694 -1.5331,48.2683 -0.256,7.9994 -0.3625,15.9668 -0.094,23.8891 0.268,7.9223 0.9103,15.7993 2.152,23.6169 0.7698,4.8477 1.7762,9.6662 3.0316,14.4146 1.2553,4.7482 2.7603,9.4262 4.5258,13.9919 1.7657,4.5656 3.7921,9.0195 6.0928,13.3192 2.3005,4.2998 4.8746,8.4454 7.7351,12.3959 2.8583,3.9474 6.0162,7.6931 9.4345,11.1781 3.4184,3.4851 7.0979,6.709 11.0005,9.6121 3.9024,2.903 8.028,5.4849 12.3385,7.6865 4.3106,2.2016 8.8056,4.023 13.4482,5.4035 5.8919,1.752 11.9094,2.7871 18.0121,3.2981 6.1027,0.5111 12.291,0.4975 18.525,0.1548 6.234,-0.3428 12.5138,-1.0154 18.7994,-1.8246 6.2857,-0.8093 12.5768,-1.7549 18.8345,-2.6434 6.2609,-0.8889 12.569,-1.7136 18.9141,-2.2643 6.345,-0.5508 12.7269,-0.8274 19.1361,-0.6183 6.4127,0.2092 12.8695,0.9207 19.1755,2.3096 3.1529,0.6944 6.2677,1.5583 9.3212,2.6132 3.0536,1.055 6.0452,2.301 8.9509,3.7602 4.1993,2.1087 8.145,4.6305 11.8242,7.4903 3.6794,2.8597 7.0923,6.0574 10.2282,9.5175 3.1359,3.4601 5.9948,7.1827 8.5641,11.0928 2.5692,3.9102 4.8484,8.0078 6.8276,12.2175 1.9769,4.2047 3.6708,8.5154 5.1184,12.9038 1.4475,4.3882 2.6494,8.854 3.6419,13.3672 1.9852,9.0263 3.1341,18.244 3.7445,27.4172 0.6102,9.1707 0.708,18.3545 0.6225,27.5232 -0.086,9.1687 -0.3542,18.3226 -0.4771,27.4308 -0.1229,9.1084 -0.1,18.172 0.3983,27.1616 0.4982,8.9894 1.4718,17.9049 3.2494,26.7172 1.3361,6.6233 3.1306,13.1528 5.3548,19.5344 2.2241,6.3815 4.8782,12.6146 7.9344,18.6439 3.0561,6.0294 6.5135,11.8554 10.3456,17.4219 3.8322,5.5665 8.0387,10.8742 12.5908,15.8673 4.552,4.9931 9.4493,9.6707 14.6387,13.9998 5.1894,4.3293 10.6714,8.3097 16.3932,11.9088 5.7217,3.5991 11.683,6.8168 17.8323,9.6199 6.1493,2.8032 12.4859,5.1923 18.9577,7.1336 6.4718,1.9412 13.0775,3.4346 19.7544,4.4787 6.6768,1.044 13.4253,1.6388 20.1834,1.7829 6.758,0.1442 13.5261,-0.1628 20.2414,-0.9212 6.7153,-0.7584 13.3775,-1.9685 19.9262,-3.632 6.5487,-1.6634 12.9818,-3.7804 19.245,-6.3189 6.2632,-2.5386 12.3562,-5.4986 18.2263,-8.8507 5.8702,-3.3519 11.5174,-7.0948 16.8867,-11.1988 5.3694,-4.104 10.4612,-8.5691 15.2219,-13.3637 l 1.4592,-1.4693 0.8983,0.891 681.2658,-681.2657 z" /><path
           id="path16011"
           style="opacity:1;fill:#3dbeb5;fill-opacity:1;stroke:none;stroke-width:5.77053;stroke-linecap:square;stroke-dasharray:none;stroke-opacity:1"
           d="M 1572.1522,-414.28373 832.97526,324.89329 c 3.2854,-0.7192 6.55634,-1.52724 9.89506,-1.92208 5.06185,-0.59853 10.16644,-0.82497 15.26129,-0.68044 5.09486,0.14437 10.17981,0.66004 15.19969,1.54442 5.01988,0.88429 9.97511,2.13761 14.81221,3.75869 4.83702,1.62117 9.54676,3.60705 14.08575,5.92651 4.53889,2.31937 8.90634,4.97215 13.0592,7.9272 4.15285,2.95505 8.09162,6.21227 11.77051,9.74037 3.67881,3.5281 7.09834,7.32716 10.21527,11.36569 2.98466,3.86726 5.67907,7.92441 8.11201,12.12939 2.43294,4.2049 4.60465,8.55813 6.54255,13.01555 1.93774,4.45749 3.642,9.01974 5.14131,13.64453 1.49923,4.6247 2.79326,9.31151 3.91059,14.01838 2.23382,9.41044 3.79169,18.92673 5.0088,28.47383 1.2171,9.5471 2.09335,19.12499 2.96427,28.66007 0.87083,9.53466 1.74242,19.06433 2.93922,28.51606 1.19679,9.45173 2.71887,18.82578 4.89202,28.05048 1.08611,4.61074 2.34306,9.19194 3.79524,13.70257 1.45218,4.51047 3.09941,8.95002 4.96801,13.27914 1.86852,4.32903 3.95857,8.5473 6.29385,12.61359 2.33545,4.06629 4.91648,7.98093 7.76896,11.70315 3.97173,5.18278 8.43103,9.93881 13.27693,14.28993 4.8459,4.35114 10.0782,8.29718 15.5944,11.85929 5.5163,3.5622 11.3173,6.74048 17.3001,9.55624 5.9828,2.81585 12.1476,5.26926 18.3932,7.3814 6.25,2.11357 12.5943,3.91405 19.0087,5.47658 6.4142,1.56252 12.8986,2.88769 19.4283,4.05097 13.0594,2.32665 26.3009,4.00612 39.528,5.64709 13.2281,1.64105 26.54,3.26459 39.7514,5.50087 6.6057,1.11818 13.1862,2.38927 19.7185,3.89273 6.5323,1.50346 13.0163,3.23903 19.4291,5.28525 6.4168,2.04766 12.7752,4.43209 18.9735,7.18515 6.1982,2.75289 12.237,5.87438 18.0128,9.39639 5.7758,3.52209 11.2888,7.44444 16.4383,11.7992 5.1495,4.35476 9.9349,9.14193 14.2541,14.39308 3.0094,3.65876 5.7588,7.50054 8.2732,11.48678 2.5145,3.98632 4.7942,8.11642 6.8635,12.3522 2.0693,4.23578 3.9281,8.57751 5.6019,12.98474 1.6739,4.40714 3.1627,8.88029 4.4909,13.38085 2.6554,8.99833 4.6971,18.1274 6.4278,27.30259 1.7308,9.17511 3.1506,18.39633 4.5632,27.57838 1.4126,9.1817 2.8248,18.35698 4.531,27.44298 1.7063,9.086 3.7067,18.08281 6.2961,26.9086 1.2943,4.41145 2.7424,8.78644 4.3669,13.08789 1.6246,4.30136 3.4252,8.52953 5.4243,12.64659 1.999,4.11698 4.1963,8.12285 6.6141,11.98105 2.4178,3.85821 5.0565,7.56849 7.9373,11.09363 3.2421,3.96711 6.7739,7.67732 10.5419,11.14508 3.768,3.46777 7.7726,6.69343 11.9596,9.69163 4.187,2.99812 8.556,5.76869 13.0549,8.32687 4.499,2.55826 9.1275,4.90386 13.8315,7.05188 9.4118,4.29773 19.1501,7.85037 29.0612,10.99175 9.9112,3.14146 19.9952,5.87167 30.0971,8.52615 10.1024,2.65455 20.2634,5.24683 30.355,8.13215 10.0917,2.88532 20.114,6.06385 29.9388,9.89074 4.9138,1.91396 9.7851,3.99826 14.5664,6.28099 4.7814,2.28273 9.4725,4.76356 14.0263,7.46881 4.5539,2.70516 8.9705,5.63482 13.2018,8.81621 4.2313,3.1813 8.2777,6.615 12.0915,10.3263 4.976,4.8423 9.481,10.0862 13.5606,15.641 4.0797,5.5548 7.734,11.4199 11.0069,17.5056 3.2729,6.0858 6.1652,12.3921 8.7209,18.8274 2.5558,6.4352 4.7748,12.9999 6.703,19.6032 1.9273,6.6001 3.5843,13.256 5.0532,19.9477 1.4688,6.6916 2.7497,13.4189 3.922,20.1618 2.3448,13.4861 4.2585,27.0346 6.3892,40.4851 2.1306,13.4492 4.506,26.8991 7.7167,40.0674 1.6053,6.5842 3.4188,13.0981 5.5159,19.5065 2.0973,6.4082 4.4777,12.7106 7.2145,18.8725 2.7346,6.1563 5.8599,12.1796 9.3757,17.9532 3.5158,5.7737 7.4223,11.2977 11.7168,16.4548 4.2945,5.1572 8.9772,9.9473 14.0477,14.2542 5.0706,4.3068 10.5286,8.1306 16.3724,11.3535 4.7317,2.6096 9.6651,4.8009 14.7448,6.6242 5.0798,1.8233 10.3057,3.2791 15.6239,4.4157 5.3181,1.1364 10.7283,1.9535 16.1753,2.5029 5.4471,0.5494 10.9311,0.8307 16.3974,0.8926 10.9384,0.1238 21.8793,-0.5835 32.8387,-1.604 10.9593,-1.0204 21.9371,-2.3539 32.9489,-3.4836 11.013,-1.1298 22.1397,-2.0537 33.2756,-2.24 5.568,-0.093 11.1379,0 16.6976,0.3402 5.5597,0.3422 11.109,0.9353 16.6346,1.846 5.5311,0.9117 11.0477,2.1663 16.4562,3.7911 5.4085,1.6247 10.7088,3.6197 15.8072,6.013 5.0982,2.3934 9.9952,5.1848 14.5957,8.4022 4.6007,3.2175 8.9054,6.861 12.8207,10.9582 2.8433,2.9752 5.4448,6.1511 7.8155,9.4874 2.3707,3.3363 4.5112,6.8325 6.4322,10.4481 1.9209,3.6156 3.6224,7.3506 5.1162,11.1637 1.4939,3.8132 2.7796,7.7051 3.8691,11.6345 2.1777,7.8541 3.5994,15.8621 4.4873,23.9248 0.8878,8.0629 1.2418,16.1804 1.2866,24.2531 0.089,16.1433 -1.021,32.2694 -1.5331,48.2682 -0.256,7.9995 -0.3625,15.9669 -0.094,23.8892 0.268,7.9223 0.9103,15.7993 2.152,23.6169 0.7698,4.8477 1.7762,9.6662 3.0316,14.4146 1.2553,4.7482 2.7603,9.4262 4.5258,13.9919 1.7657,4.5656 3.7921,9.0195 6.0928,13.3192 2.3005,4.2998 4.8746,8.4454 7.7351,12.3959 2.8583,3.9474 6.0162,7.6931 9.4345,11.1781 3.4184,3.4851 7.0979,6.709 11.0005,9.6121 3.9024,2.903 8.028,5.4849 12.3385,7.6865 4.3106,2.2016 8.8056,4.023 13.4482,5.4035 5.8919,1.752 11.9094,2.7871 18.0121,3.2981 6.1027,0.5111 12.291,0.4975 18.525,0.1548 6.234,-0.3428 12.5138,-1.0154 18.7994,-1.8246 6.2857,-0.8093 12.5768,-1.7549 18.8345,-2.6434 6.2609,-0.8889 12.569,-1.7136 18.9141,-2.2643 6.345,-0.5508 12.7269,-0.8274 19.1361,-0.6183 6.4127,0.2092 12.8695,0.9207 19.1755,2.3096 3.1529,0.6944 6.2677,1.5583 9.3212,2.6132 3.0536,1.055 6.0452,2.301 8.9509,3.7602 4.1993,2.1087 8.145,4.6305 11.8242,7.4903 3.6794,2.8597 7.0923,6.0574 10.2282,9.5175 3.1359,3.4601 5.9948,7.1827 8.5641,11.0928 2.5692,3.9102 4.8484,8.0078 6.8276,12.2175 1.9769,4.2047 3.6708,8.5154 5.1184,12.9038 1.4475,4.3882 2.6494,8.854 3.6419,13.3672 1.9852,9.0263 3.1341,18.244 3.7445,27.4172 0.6102,9.1707 0.708,18.3545 0.6225,27.5232 -0.086,9.1687 -0.3542,18.3226 -0.4771,27.4308 -0.1229,9.1084 -0.1,18.172 0.3983,27.1616 0.4982,8.9894 1.4718,17.9049 3.2494,26.7172 1.3361,6.6233 3.1306,13.1528 5.3548,19.5344 2.2241,6.3815 4.8782,12.6146 7.9344,18.6439 3.0561,6.0294 6.5135,11.8554 10.3456,17.4219 3.8322,5.5665 8.0387,10.8742 12.5908,15.8673 4.552,4.9931 9.4493,9.6707 14.6387,13.9998 5.1894,4.3293 10.6714,8.3097 16.3932,11.9088 5.7217,3.5991 11.683,6.8168 17.8323,9.6199 6.1493,2.8032 12.4859,5.1923 18.9577,7.1336 6.4718,1.9412 13.0775,3.4346 19.7544,4.4787 6.6768,1.044 13.4253,1.6388 20.1834,1.7829 6.758,0.1442 13.5261,-0.1628 20.2414,-0.9212 6.7153,-0.7584 13.3775,-1.9685 19.9262,-3.632 6.5487,-1.6634 12.9818,-3.7804 19.245,-6.3189 6.2632,-2.5386 12.3562,-5.4986 18.2263,-8.8507 5.8702,-3.3519 11.5174,-7.0948 16.8867,-11.1988 5.3694,-4.104 10.4612,-8.5691 15.2219,-13.3637 l 1.4592,-1.4693 0.8983,0.891 681.2658,-681.2657 z" /><path
           id="path16013"
           style="opacity:1;fill:#07aba0;fill-opacity:1;stroke:none;stroke-width:5.77053;stroke-linecap:square;stroke-dasharray:none;stroke-opacity:1"
           d="M 1632.1522,-474.28373 892.97526,264.89329 c 3.2854,-0.7192 6.55634,-1.52724 9.89506,-1.92208 5.06185,-0.59853 10.16644,-0.82497 15.26129,-0.68044 5.09486,0.14437 10.17981,0.66004 15.19969,1.54442 5.01988,0.88429 9.97511,2.13761 14.81221,3.75869 4.83702,1.62117 9.54676,3.60705 14.08575,5.92651 4.53889,2.31937 8.90634,4.97215 13.0592,7.9272 4.15285,2.95505 8.09162,6.21227 11.77051,9.74037 3.67881,3.5281 7.09834,7.32716 10.21527,11.36569 2.98466,3.86726 5.67906,7.92441 8.11196,12.12939 2.433,4.2049 4.6047,8.55813 6.5426,13.01555 1.9377,4.45749 3.642,9.01974 5.1413,13.64453 1.4992,4.6247 2.7933,9.31151 3.9106,14.01838 2.2338,9.41044 3.7917,18.92673 5.0088,28.47383 1.2171,9.5471 2.0933,19.12499 2.9643,28.66007 0.8708,9.53466 1.7424,19.06433 2.9392,28.51606 1.1968,9.45173 2.7189,18.82578 4.892,28.05048 1.0861,4.61074 2.3431,9.19194 3.7952,13.70257 1.4522,4.51047 3.0995,8.95002 4.9681,13.27914 1.8685,4.32903 3.9585,8.5473 6.2938,12.61359 2.3355,4.06629 4.9165,7.98093 7.769,11.70315 3.9717,5.18278 8.431,9.93881 13.2769,14.28993 4.8459,4.35113 10.0782,8.29717 15.5944,11.85928 5.5163,3.5622 11.3173,6.74048 17.3001,9.55624 5.9828,2.81585 12.1476,5.26926 18.3932,7.3814 6.25,2.11357 12.5943,3.91405 19.0087,5.47658 6.4142,1.56252 12.8986,2.88769 19.4283,4.05097 13.0594,2.32665 26.3009,4.00612 39.528,5.64709 13.2281,1.64105 26.54,3.26459 39.7514,5.50087 6.6057,1.11818 13.1862,2.38927 19.7185,3.89273 6.5323,1.50346 13.0163,3.23903 19.4291,5.28525 6.4168,2.04766 12.7752,4.4321 18.9735,7.18516 6.1982,2.75289 12.237,5.87438 18.0128,9.39639 5.7758,3.52209 11.2888,7.44444 16.4383,11.7992 5.1495,4.35476 9.9349,9.14193 14.2541,14.39308 3.0094,3.65876 5.7588,7.50054 8.2732,11.48678 2.5145,3.98632 4.7942,8.11642 6.8635,12.3522 2.0693,4.23578 3.9281,8.57751 5.6019,12.98474 1.6739,4.40714 3.1627,8.88029 4.4909,13.38085 2.6554,8.99833 4.6971,18.1274 6.4278,27.30259 1.7308,9.17511 3.1506,18.39633 4.5632,27.57838 1.4126,9.1817 2.8248,18.35698 4.531,27.44298 1.7063,9.086 3.7067,18.08281 6.2961,26.9086 1.2943,4.41145 2.7424,8.78644 4.3669,13.08789 1.6246,4.30136 3.4252,8.52953 5.4243,12.64659 1.999,4.11698 4.1963,8.12285 6.6141,11.98105 2.4178,3.85821 5.0565,7.56849 7.9373,11.09363 3.2421,3.96711 6.7739,7.67732 10.5419,11.14508 3.768,3.46777 7.7726,6.69343 11.9596,9.69163 4.187,2.99812 8.556,5.76869 13.0549,8.32687 4.499,2.55826 9.1275,4.90386 13.8315,7.05188 9.4118,4.29773 19.1501,7.85037 29.0612,10.99175 9.9112,3.14146 19.9952,5.87167 30.0971,8.52615 10.1024,2.65455 20.2634,5.24683 30.355,8.13215 10.0917,2.88532 20.114,6.06385 29.9388,9.89074 4.9138,1.91396 9.7851,3.99826 14.5664,6.28099 4.7814,2.28273 9.4725,4.76356 14.0263,7.46881 4.5539,2.70516 8.9705,5.63482 13.2018,8.81623 4.2313,3.18132 8.2777,6.61498 12.0915,10.32629 4.976,4.84234 9.481,10.08621 13.5606,15.64098 4.0797,5.55477 7.734,11.41993 11.0069,17.50561 3.2729,6.08577 6.1652,12.39214 8.7209,18.8274 2.5558,6.4352 4.7748,12.9999 6.703,19.6032 1.9273,6.6001 3.5843,13.256 5.0532,19.9477 1.4688,6.6916 2.7497,13.4189 3.922,20.1618 2.3448,13.4861 4.2585,27.0346 6.3892,40.4851 2.1306,13.4492 4.506,26.8991 7.7167,40.0674 1.6053,6.5842 3.4188,13.0981 5.5159,19.5065 2.0973,6.4082 4.4777,12.7106 7.2145,18.8725 2.7346,6.1563 5.8599,12.1796 9.3757,17.9532 3.5158,5.7737 7.4223,11.2977 11.7168,16.4548 4.2945,5.1572 8.9772,9.9473 14.0477,14.2542 5.0706,4.3068 10.5286,8.1306 16.3724,11.3535 4.7317,2.6096 9.6651,4.8009 14.7448,6.6242 5.0798,1.8233 10.3057,3.2791 15.6239,4.4157 5.3181,1.1364 10.7283,1.9535 16.1753,2.5029 5.4471,0.5494 10.9311,0.8307 16.3974,0.8926 10.9384,0.1238 21.8793,-0.5835 32.8387,-1.604 10.9593,-1.0204 21.9371,-2.3539 32.9489,-3.4836 11.013,-1.1298 22.1397,-2.0537 33.2756,-2.24 5.568,-0.093 11.1379,0 16.6976,0.3402 5.5597,0.3422 11.109,0.9353 16.6346,1.846 5.5311,0.9117 11.0477,2.1663 16.4562,3.7911 5.4085,1.6247 10.7088,3.6197 15.8072,6.013 5.0982,2.3934 9.9952,5.1848 14.5957,8.4022 4.6007,3.2175 8.9054,6.861 12.8207,10.9582 2.8433,2.9752 5.4448,6.1511 7.8155,9.4874 2.3707,3.3363 4.5112,6.8325 6.4322,10.4481 1.9209,3.6156 3.6224,7.3506 5.1162,11.1637 1.4939,3.8132 2.7796,7.7051 3.8691,11.6345 2.1777,7.8541 3.5994,15.8621 4.4873,23.9248 0.8878,8.0629 1.2418,16.1804 1.2866,24.2531 0.089,16.1433 -1.021,32.2694 -1.5331,48.2682 -0.256,7.9995 -0.3625,15.9669 -0.094,23.8892 0.268,7.9223 0.9103,15.7993 2.152,23.6169 0.7698,4.8477 1.7762,9.6662 3.0316,14.4146 1.2553,4.7482 2.7603,9.4262 4.5258,13.9919 1.7657,4.5656 3.7921,9.0195 6.0928,13.3192 2.3005,4.2998 4.8746,8.4454 7.7351,12.3959 2.8583,3.9474 6.0162,7.6931 9.4345,11.1781 3.4184,3.4851 7.0979,6.709 11.0005,9.6121 3.9024,2.903 8.028,5.4849 12.3385,7.6865 4.3106,2.2016 8.8056,4.023 13.4482,5.4035 5.8919,1.752 11.9094,2.7871 18.0121,3.2981 6.1027,0.5111 12.291,0.4975 18.525,0.1548 6.234,-0.3428 12.5138,-1.0154 18.7994,-1.8246 6.2857,-0.8093 12.5768,-1.7549 18.8345,-2.6434 6.2609,-0.8889 12.569,-1.7136 18.9141,-2.2643 6.345,-0.5508 12.7269,-0.8274 19.1361,-0.6183 6.4127,0.2092 12.8695,0.9207 19.1755,2.3096 3.1529,0.6944 6.2677,1.5583 9.3212,2.6132 3.0536,1.055 6.0452,2.301 8.9509,3.7602 4.1993,2.1087 8.145,4.6305 11.8242,7.4903 3.6794,2.8597 7.0923,6.0574 10.2282,9.5175 3.1359,3.4601 5.9948,7.1827 8.5641,11.0928 2.5692,3.9102 4.8484,8.0078 6.8276,12.2175 1.9769,4.2047 3.6708,8.5154 5.1184,12.9038 1.4475,4.3882 2.6494,8.854 3.6419,13.3672 1.9852,9.0263 3.1341,18.244 3.7445,27.4172 0.6102,9.1707 0.708,18.3545 0.6225,27.5232 -0.086,9.1687 -0.3542,18.3226 -0.4771,27.4308 -0.1229,9.1084 -0.1,18.172 0.3983,27.1616 0.4982,8.9894 1.4718,17.9049 3.2494,26.7172 1.3361,6.6233 3.1306,13.1528 5.3548,19.5344 2.2241,6.3815 4.8782,12.6146 7.9344,18.6439 3.0561,6.0294 6.5135,11.8554 10.3456,17.4219 3.8322,5.5665 8.0387,10.8742 12.5908,15.8673 4.552,4.9931 9.4493,9.6707 14.6387,13.9998 5.1894,4.3293 10.6714,8.3097 16.3932,11.9088 5.7217,3.5991 11.683,6.8168 17.8323,9.6199 6.1493,2.8032 12.4859,5.1923 18.9577,7.1336 6.4718,1.9412 13.0775,3.4346 19.7544,4.4787 6.6768,1.044 13.4253,1.6388 20.1834,1.7829 6.758,0.1442 13.5261,-0.1628 20.2414,-0.9212 6.7153,-0.7584 13.3775,-1.9685 19.9262,-3.632 6.5487,-1.6634 12.9818,-3.7804 19.245,-6.3189 6.2632,-2.5386 12.3562,-5.4986 18.2263,-8.8507 5.8702,-3.3519 11.5174,-7.0948 16.8867,-11.1988 5.3694,-4.104 10.4612,-8.5691 15.2219,-13.3637 l 1.4592,-1.4693 0.8983,0.891 681.2658,-681.2657 z" /></g></g><rect
       style="opacity:1;fill:#07aba0;fill-opacity:1;stroke:none;stroke-width:2.4;stroke-linecap:round;stroke-dasharray:none;stroke-opacity:1"
       id="rect16017"
       width="1920"
       height="1080"
       x="2969.397"
       y="-3068.7324" /></g></svg>
