<?xml version="1.0" encoding="UTF-8" standalone="no"?>
<!-- Created with Inkscape (http://www.inkscape.org/) -->

<svg
   width="6171.7188"
   height="1121.3926"
   viewBox="0 0 6171.7188 1121.3926"
   version="1.1"
   id="svg5"
   xml:space="preserve"
   inkscape:version="1.2.2 (b0a8486541, 2022-12-01)"
   sodipodi:docname="prototype.svg"
   xmlns:inkscape="http://www.inkscape.org/namespaces/inkscape"
   xmlns:sodipodi="http://sodipodi.sourceforge.net/DTD/sodipodi-0.dtd"
   xmlns="http://www.w3.org/2000/svg"
   xmlns:svg="http://www.w3.org/2000/svg"><sodipodi:namedview
     id="namedview7"
     pagecolor="#ffffff"
     bordercolor="#000000"
     borderopacity="0.25"
     inkscape:showpageshadow="2"
     inkscape:pageopacity="0.0"
     inkscape:pagecheckerboard="0"
     inkscape:deskcolor="#d1d1d1"
     inkscape:document-units="px"
     showgrid="false"
     showguides="false"
     inkscape:zoom="0.47009506"
     inkscape:cx="971.08018"
     inkscape:cy="590.30613"
     inkscape:window-width="1584"
     inkscape:window-height="847"
     inkscape:window-x="0"
     inkscape:window-y="0"
     inkscape:window-maximized="1"
     inkscape:current-layer="layer1" /><defs
     id="defs2" /><g
     inkscape:label="Layer 1"
     inkscape:groupmode="layer"
     id="layer1"
     transform="translate(790.86133,3164.5293)"><path
       id="path2172"
       style="opacity:1;fill:#7cd3cd;fill-opacity:1;stroke:none;stroke-width:16.9454;stroke-linecap:round;stroke-dasharray:none;stroke-opacity:1"
       d="m -790.86133,-3164.5293 c 7.88155,1.4191 15.71344,3.2262 23.46289,5.4824 6.7936,1.9777 13.51792,4.3148 20.10547,7.0254 6.58765,2.7107 13.03835,5.793 19.27735,9.2578 6.23895,3.4646 12.26817,7.3129 18.01562,11.5528 5.74755,4.2399 11.21477,8.872 16.32812,13.9082 2.9221,2.8778 5.72806,5.8898 8.40626,9.0332 4.85215,5.6954 9.20044,11.729 13.08984,18.0215 3.88935,6.2918 7.32023,12.8429 10.33203,19.5722 3.0117,6.7293 5.60482,13.6367 7.82422,20.6426 2.2194,7.0061 4.06597,14.1118 5.57812,21.2344 1.51,7.1119 2.70189,14.2468 3.64649,21.3926 0.9447,7.1454 1.6403,14.302 2.1543,21.4511 1.02785,14.298 1.32955,28.5713 1.44335,42.6973 0.1138,14.1239 0.0454,28.1623 0.29883,42.0781 0.2533,13.9159 0.82851,27.7092 2.22656,41.3457 0.6984,6.8127 1.61121,13.6004 2.78321,20.3164 1.172,6.716 2.60169,13.3601 4.33789,19.8848 1.7362,6.5246 3.77707,12.9295 6.16797,19.168 2.3909,6.2386 5.13343,12.3121 8.26953,18.1699 2.2837,4.2656 4.77588,8.4098 7.45508,12.4336 2.67905,4.0241 5.54563,7.9279 8.58203,11.7109 6.07265,7.5661 12.8211,14.6513 20.09375,21.2578 7.27265,6.6064 15.06923,12.7323 23.23633,18.3848 8.16695,5.6523 16.70488,10.8315 25.46093,15.5351 8.77205,4.7125 17.78126,8.9976 26.97071,12.9629 9.18935,3.9652 18.56019,7.6089 28.05664,11.041 18.993,6.8652 38.49098,12.8805 58.05078,18.9024 19.5637,6.0232 39.33424,12.1156 58.83594,19.2031 9.75085,3.5437 19.43418,7.3358 28.99023,11.4942 9.55595,4.1582 18.98491,8.6823 28.22656,13.6875 9.25805,5.014 18.33765,10.5541 27.0625,16.6406 8.72485,6.0864 17.09535,12.7184 24.9375,19.918 7.8421,7.1992 15.15563,14.9668 21.76563,23.3203 3.30505,4.1768 6.43378,8.4999 9.36523,12.9726 2.9315,4.4729 5.66749,9.0953 8.18164,13.8692 2.8495,5.4104 5.37319,10.9142 7.61914,16.4961 2.246,5.5817 4.21256,11.2406 5.94336,16.957 3.4617,11.433 5.98257,23.0978 7.91407,34.8496 1.93135,11.7518 3.2727,23.5919 4.38085,35.3691 1.1082,11.7773 1.98266,23.4929 2.97461,35.002 0.9911,11.499 2.11804,22.9253 3.70704,34.1836 1.58905,11.2583 3.64146,22.3493 6.47656,33.1797 1.416,5.409 3.03536,10.7595 4.88086,16.0097 1.8457,5.2503 3.91672,10.3996 6.23242,15.4024 2.3156,5.0028 4.87697,9.8606 7.70312,14.5273 2.8261,4.6666 5.91783,9.1431 9.29493,13.3848 5.20015,6.5318 11.06884,12.491 17.46679,17.9062 6.398,5.4152 13.32417,10.2858 20.63672,14.6426 7.312678,4.3568 15.013073,8.2001 22.957033,11.5567 7.94396,3.3567 16.133626,6.2275 24.425781,8.6425 8.31276,2.4209 16.757486,4.4249 25.306641,6.1289 8.549255,1.7038 17.201032,3.1079 25.9296875,4.3184 17.4574125,2.421 35.2178715,4.0776 53.0507815,5.8672 17.83861,1.79 35.914555,3.7475 53.884765,6.8379 8.985151,1.5452 17.943931,3.3729 26.833981,5.6054 8.88995,2.2328 17.71233,4.8709 26.42188,8.0333 8.73565,3.1713 17.36578,6.9209 25.70703,11.2734 8.34115,4.3525 16.39265,9.3081 23.9707,14.8926 7.5781,5.5844 14.68276,11.7985 21.12891,18.666 3.2231,3.4339 6.28139,7.0307 9.15234,10.7949 2.871,3.7644 5.55455,7.6959 8.02735,11.7969 2.94795,4.8894 5.54539,9.9308 7.83789,15.0801 2.2924,5.1491 4.28032,10.4059 6.01172,15.7304 1.73155,5.3245 3.2053,10.7154 4.4707,16.1309 1.2653,5.4154 2.3228,10.8552 3.2168,16.2773 0.0155,0.094 0.0178,0.1872 0.0332,0.2813 h 1938.09374 190.2969 2990.7109 c -7.8816,-1.4191 -15.7134,-3.2262 -23.4629,-5.4824 -6.7936,-1.9777 -13.5178,-4.3148 -20.1054,-7.0254 -6.5876,-2.7107 -13.0384,-5.793 -19.2774,-9.2578 -6.239,-3.4646 -12.2682,-7.3129 -18.0156,-11.5528 -5.7476,-4.2399 -11.2148,-8.872 -16.3281,-13.9082 -2.9221,-2.8778 -5.7281,-5.8898 -8.4063,-9.0332 -4.8522,-5.6954 -9.2004,-11.729 -13.0898,-18.0215 -3.8894,-6.2919 -7.3203,-12.8429 -10.3321,-19.5722 -3.0117,-6.7293 -5.6048,-13.6367 -7.8242,-20.6426 -2.2194,-7.0061 -4.066,-14.1118 -5.5781,-21.2344 -1.51,-7.1119 -2.7019,-14.2468 -3.6465,-21.3926 -0.9447,-7.1455 -1.6403,-14.302 -2.1543,-21.4511 -1.0279,-14.298 -1.3295,-28.5713 -1.4433,-42.6973 -0.1138,-14.1239 -0.045,-28.1623 -0.2989,-42.0781 -0.2533,-13.9159 -0.8285,-27.7092 -2.2265,-41.3457 -0.6984,-6.8127 -1.6112,-13.6004 -2.7832,-20.3164 -1.172,-6.716 -2.6017,-13.3601 -4.3379,-19.8848 -1.7362,-6.5246 -3.7771,-12.9295 -6.168,-19.168 -2.3909,-6.2386 -5.1334,-12.3121 -8.2695,-18.1699 -2.2837,-4.2656 -4.7759,-8.4098 -7.4551,-12.4336 -2.6791,-4.0241 -5.5456,-7.9279 -8.582,-11.7109 -6.0726,-7.5661 -12.8211,-14.6513 -20.0938,-21.2578 -7.2727,-6.6064 -15.0692,-12.7323 -23.2363,-18.3848 -8.167,-5.6523 -16.7049,-10.8316 -25.461,-15.5352 -8.7719,-4.7125 -17.7812,-8.9976 -26.9707,-12.9628 -9.1892,-3.9652 -18.5602,-7.6089 -28.0566,-11.0411 -18.993,-6.8652 -38.491,-12.8804 -58.0508,-18.9023 -19.5637,-6.0232 -39.3342,-12.1156 -58.8359,-19.2031 -9.7509,-3.5437 -19.4342,-7.3358 -28.9902,-11.4942 -9.5559,-4.1582 -18.985,-8.6823 -28.2266,-13.6875 -9.2581,-5.014 -18.3377,-10.5541 -27.0625,-16.6406 -8.7249,-6.0864 -17.0954,-12.7184 -24.9375,-19.918 -7.8421,-7.1993 -15.1556,-14.9668 -21.7656,-23.3203 -3.305,-4.1768 -6.4338,-8.4999 -9.3653,-12.9726 -2.9315,-4.4729 -5.6675,-9.0953 -8.1816,-13.8692 -2.8495,-5.4104 -5.3732,-10.9142 -7.6191,-16.4961 -2.246,-5.5817 -4.2126,-11.2406 -5.9434,-16.957 -3.4617,-11.433 -5.9826,-23.0978 -7.9141,-34.8496 -1.9314,-11.7518 -3.2727,-23.592 -4.3808,-35.3692 -1.1082,-11.7772 -1.9826,-23.4928 -2.9746,-35.0019 -0.9911,-11.499 -2.1181,-22.9253 -3.7071,-34.1836 -1.5891,-11.2583 -3.6414,-22.3493 -6.4765,-33.1797 -1.416,-5.409 -3.0354,-10.7596 -4.8809,-16.0098 -1.8457,-5.2502 -3.9167,-10.3995 -6.2324,-15.4023 -2.3156,-5.0028 -4.8769,-9.8606 -7.7031,-14.5273 -2.8261,-4.6666 -5.9179,-9.1431 -9.295,-13.3848 -5.2001,-6.5318 -11.0688,-12.4911 -17.4668,-17.9063 -6.398,-5.4152 -13.3241,-10.2857 -20.6367,-14.6425 -7.3127,-4.3568 -15.0131,-8.2001 -22.957,-11.5567 -7.944,-3.3567 -16.1336,-6.2276 -24.4258,-8.6426 -8.3128,-2.4209 -16.7574,-4.4249 -25.3066,-6.1289 -8.5492,-1.7038 -17.2011,-3.1078 -25.9297,-4.3183 -17.4575,-2.421 -35.2179,-4.0776 -53.0508,-5.8672 -17.8387,-1.79 -35.9146,-3.7475 -53.8848,-6.8379 -8.9851,-1.5452 -17.9439,-3.3729 -26.8339,-5.6055 -8.8899,-2.2328 -17.7124,-4.8708 -26.4219,-8.0332 -8.7357,-3.1714 -17.3658,-6.9209 -25.7071,-11.2734 -8.341,-4.3525 -16.3926,-9.3081 -23.9707,-14.8926 -7.5781,-5.5844 -14.6827,-11.7985 -21.1289,-18.666 -3.2231,-3.4339 -6.2814,-7.0307 -9.1523,-10.7949 -2.871,-3.7644 -5.5546,-7.6959 -8.0274,-11.7969 -2.9479,-4.8894 -5.5453,-9.9308 -7.8378,-15.0801 -2.2924,-5.1491 -4.2804,-10.4059 -6.0118,-15.7304 -1.7315,-5.3245 -3.2053,-10.7154 -4.4707,-16.1309 -1.2653,-5.4154 -2.3228,-10.8553 -3.2168,-16.2773 -0.015,-0.094 -0.018,-0.1872 -0.033,-0.2813 H 2390.1465 2199.8496 Z" /></g></svg>
