<?xml version="1.0" encoding="UTF-8" standalone="no"?>
<!-- Created with Inkscape (http://www.inkscape.org/) -->

<svg
   width="662.93103"
   height="675.78186"
   viewBox="0 0 662.93103 675.78186"
   version="1.1"
   id="svg5"
   xml:space="preserve"
   inkscape:version="1.2.2 (b0a8486541, 2022-12-01)"
   sodipodi:docname="prototype.svg"
   xmlns:inkscape="http://www.inkscape.org/namespaces/inkscape"
   xmlns:sodipodi="http://sodipodi.sourceforge.net/DTD/sodipodi-0.dtd"
   xmlns:xlink="http://www.w3.org/1999/xlink"
   xmlns="http://www.w3.org/2000/svg"
   xmlns:svg="http://www.w3.org/2000/svg"><sodipodi:namedview
     id="namedview7"
     pagecolor="#ffffff"
     bordercolor="#000000"
     borderopacity="0.25"
     inkscape:showpageshadow="2"
     inkscape:pageopacity="0.0"
     inkscape:pagecheckerboard="0"
     inkscape:deskcolor="#d1d1d1"
     inkscape:document-units="px"
     showgrid="false"
     showguides="false"
     inkscape:zoom="0.11752377"
     inkscape:cx="3522.6917"
     inkscape:cy="-727.51242"
     inkscape:window-width="1584"
     inkscape:window-height="847"
     inkscape:window-x="0"
     inkscape:window-y="0"
     inkscape:window-maximized="1"
     inkscape:current-layer="layer1" /><defs
     id="defs2"><linearGradient
       inkscape:collect="always"
       id="linearGradient9954"><stop
         style="stop-color:#000000;stop-opacity:0.05365025;"
         offset="0"
         id="stop9950" /><stop
         style="stop-color:#000000;stop-opacity:0.55360609;"
         offset="1"
         id="stop9952" /></linearGradient><radialGradient
       inkscape:collect="always"
       xlink:href="#linearGradient9954"
       id="radialGradient9956"
       cx="453.50861"
       cy="529.55835"
       fx="453.50861"
       fy="529.55835"
       r="331.46552"
       gradientTransform="matrix(1,0,0,1.0193849,0,-10.265419)"
       gradientUnits="userSpaceOnUse" /></defs><g
     inkscape:label="Layer 1"
     inkscape:groupmode="layer"
     id="layer1"
     transform="translate(-122.04308,-191.66742)"><path
       id="path3953"
       style="opacity:1;fill:url(#radialGradient9956);fill-opacity:1;stroke:none;stroke-width:11.125;stroke-linecap:square;stroke-dasharray:none;stroke-opacity:1"
       d="m 535.85259,191.71145 c -11.14242,-0.10775 -23.00807,-0.0218 -35.29297,0.30273 -12.2849,0.32453 -24.98994,0.88753 -37.81055,1.73633 -6.4103,0.4244 -12.84884,0.91947 -19.27929,1.49219 -6.43046,0.57271 -12.85181,1.22254 -19.22657,1.95508 -6.37476,0.73253 -12.70404,1.54732 -18.94726,2.45117 -6.24322,0.90385 -12.40167,1.8977 -18.4375,2.98437 -6.48639,1.16779 -12.92883,2.4546 -19.31836,3.87696 -6.38954,1.42236 -12.72557,2.98021 -18.99805,4.6875 -6.27248,1.70728 -12.48197,3.56337 -18.61719,5.58593 -6.13521,2.02256 -12.19607,4.2119 -18.17382,6.58008 -5.97776,2.36818 -11.8718,4.916 -17.67188,7.66016 -5.80008,2.74415 -11.50717,5.68351 -17.10937,8.83398 -5.60221,3.15048 -11.10026,6.51247 -16.48438,10.09961 -5.38412,3.58715 -10.65299,7.39896 -15.79883,11.45313 -5.1677,4.07139 -10.13022,8.32224 -14.89453,12.74804 -4.76431,4.42581 -9.33069,9.0278 -13.71094,13.79883 -4.38024,4.77103 -8.57432,9.7113 -12.58984,14.81836 -4.01552,5.10706 -7.8533,10.38054 -11.52344,15.81445 -3.67013,5.43392 -7.17154,11.02967 -10.51562,16.78125 -3.34409,5.75158 -6.53099,11.6587 -9.56836,17.71875 -3.03738,6.06006 -5.92578,12.27347 -8.67578,18.63282 -2.75,6.35935 -5.36179,12.86421 -7.84375,19.51367 -2.34495,6.28239 -4.57942,12.72394 -6.70117,19.2832 -2.12176,6.55926 -4.13048,13.23765 -6.01954,19.99219 -1.88905,6.75453 -3.65978,13.58491 -5.30664,20.45312 -1.64685,6.86821 -3.16929,13.77355 -4.56445,20.67383 -1.39516,6.90029 -2.66291,13.79572 -3.79687,20.64649 -1.13397,6.85076 -2.13477,13.6573 -2.99805,20.37695 -0.86328,6.71965 -1.58879,13.35244 -2.17188,19.85937 -0.58309,6.50694 -1.023,12.88699 -1.3164,19.09961 -0.30889,6.54041 -0.45943,12.91323 -0.44532,19.125 0.0141,6.21178 0.19291,12.26259 0.54493,18.16602 0.35201,5.90343 0.8772,11.65806 1.58203,17.27344 0.70482,5.61538 1.58956,11.09184 2.66211,16.43945 1.07255,5.34761 2.33193,10.56783 3.78711,15.66797 1.45518,5.10014 3.10626,10.08017 4.95898,14.95312 1.85272,4.87296 3.90671,9.63864 6.17188,14.30469 2.26517,4.66605 4.74106,9.23345 7.43359,13.71289 2.67547,4.45106 5.55313,8.79256 8.625,13.0293 3.07187,4.23674 6.33844,8.36778 9.78711,12.40234 3.44867,4.03458 7.08083,7.97188 10.88672,11.81638 3.80588,3.8445 7.78423,7.5971 11.92773,11.2637 4.1435,3.6666 8.45059,7.2472 12.91211,10.7481 4.46152,3.5008 9.07794,6.9222 13.83789,10.2695 4.75995,3.3472 9.66434,6.6204 14.70313,9.8262 5.03878,3.2057 10.21174,6.3434 15.50976,9.4199 5.18249,3.0093 10.49045,5.9606 15.9043,8.8515 5.41384,2.891 10.93402,5.7212 16.53906,8.4903 5.60504,2.7691 11.29472,5.4772 17.05078,8.1211 5.75607,2.6438 11.57839,5.225 17.44532,7.7402 5.86692,2.5152 11.77918,4.9645 17.71679,7.3477 5.93762,2.3831 11.90101,4.6995 17.86914,6.9472 11.93628,4.4954 23.89357,8.7154 35.71094,12.6485 11.61814,3.8668 23.53852,7.6029 35.58594,11.1171 6.02371,1.7572 12.07983,3.4582 18.14453,5.0938 6.0647,1.6356 12.13774,3.2056 18.19922,4.6973 6.06148,1.4917 12.11096,2.9049 18.125,4.2304 6.01404,1.3256 11.99364,2.5641 17.91601,3.7012 5.92238,1.1372 11.78772,2.1732 17.57422,3.0996 5.7865,0.9265 11.49321,1.7421 17.09961,2.4356 5.84606,0.7231 11.59018,1.318 17.23438,1.7754 5.6442,0.4573 11.18962,0.7768 16.63867,0.9531 5.44905,0.1762 10.8019,0.2082 16.0625,0.088 5.2606,-0.1203 10.42894,-0.3919 15.50781,-0.8242 5.07887,-0.4323 10.06881,-1.0236 14.97266,-1.7832 4.90385,-0.7597 9.72149,-1.6886 14.45703,-2.7911 4.73554,-1.1025 9.38896,-2.3791 13.96289,-3.8398 4.57393,-1.4607 9.06924,-3.1051 13.48828,-4.9395 4.39887,-1.8259 8.69735,-3.8336 12.89455,-6.0195 4.1972,-2.1859 8.293,-4.5496 12.2851,-7.0879 3.9922,-2.5382 7.8803,-5.2518 11.6641,-8.1347 3.7838,-2.883 7.4631,-5.9363 11.0352,-9.1563 3.572,-3.22 7.0374,-6.6049 10.3945,-10.1543 3.357,-3.5494 6.6054,-7.2616 9.7441,-11.1328 3.1387,-3.8712 6.167,-7.9026 9.084,-12.0879 2.917,-4.1853 5.7221,-8.5257 8.4141,-13.0176 2.7186,-4.5363 5.2896,-9.1689 7.7168,-13.8925 2.4271,-4.7237 4.7103,-9.5391 6.8574,-14.4415 2.1471,-4.9023 4.1568,-9.8906 6.0352,-14.9628 1.8783,-5.0723 3.6251,-10.2275 5.246,-15.461 1.621,-5.2335 3.1173,-10.54568 4.4922,-15.93163 1.3749,-5.38595 2.6293,-10.8453 3.7696,-16.375 1.1402,-5.5297 2.1651,-11.1302 3.082,-16.79492 0.9169,-5.66472 1.7247,-11.39453 2.4297,-17.18555 0.6906,-5.67361 1.2804,-11.38838 1.7832,-17.13672 0.5028,-5.74833 0.9186,-11.5304 1.2656,-17.33789 0.6941,-11.61497 1.1094,-23.33174 1.3731,-35.08984 0.5274,-23.51621 0.4514,-47.19408 0.7988,-70.53516 0.1757,-11.8057 0.5313,-23.38298 0.9629,-34.74023 0.4316,-11.35725 0.9383,-22.49472 1.414,-33.42188 0.4758,-10.92716 0.9205,-21.64474 1.2286,-32.16015 0.3081,-10.51542 0.4794,-20.82915 0.4082,-30.95118 -0.036,-5.16227 -0.1569,-10.2346 -0.3809,-15.21875 -0.224,-4.98414 -0.5513,-9.87982 -1,-14.68945 -0.4487,-4.80963 -1.0181,-9.53316 -1.7285,-14.17187 -0.7104,-4.63872 -1.5612,-9.19265 -2.5703,-13.66407 -1.0091,-4.47141 -2.1767,-8.86025 -3.5215,-13.16796 -1.3448,-4.30772 -2.8665,-8.53402 -4.584,-12.68165 -1.7175,-4.14762 -3.6306,-8.21588 -5.7578,-12.20703 -2.1273,-3.99114 -4.469,-7.90587 -7.043,-11.74414 -2.5441,-3.79367 -5.2713,-7.43856 -8.1738,-10.9375 -2.9025,-3.49894 -5.9817,-6.85105 -9.2266,-10.06054 -3.2449,-3.2095 -6.6553,-6.27583 -10.2265,-9.20118 -3.5713,-2.92534 -7.3021,-5.71093 -11.1836,-8.35742 -3.8815,-2.64648 -7.9141,-5.15442 -12.0899,-7.52734 -4.1757,-2.37292 -8.4953,-4.61021 -12.9492,-6.71485 -4.4539,-2.10464 -9.0418,-4.07631 -13.7578,-5.91796 -4.716,-1.84166 -9.5594,-3.55276 -14.5215,-5.13672 -4.8621,-1.55204 -9.8116,-2.97272 -14.83983,-4.27149 -5.02821,-1.29877 -10.13678,-2.47654 -15.32031,-3.54101 -5.18353,-1.06448 -10.4415,-2.0161 -15.76953,-2.86524 -5.32804,-0.84914 -10.72576,-1.59527 -16.1875,-2.24804 -5.46174,-0.65278 -10.98763,-1.21214 -16.57227,-1.6875 -5.58464,-0.47537 -11.2271,-0.86667 -16.92383,-1.1836 -5.69673,-0.31693 -11.44808,-0.56083 -17.24609,-0.73828 -5.79802,-0.17745 -11.64276,-0.28876 -17.53125,-0.3457 z" /></g></svg>
