<?xml version="1.0" encoding="UTF-8" standalone="no"?>
<!-- Created with Inkscape (http://www.inkscape.org/) -->

<svg
   width="713.52051"
   height="704.77924"
   viewBox="0 0 713.52051 704.77924"
   version="1.1"
   id="svg5"
   xml:space="preserve"
   inkscape:version="1.2.2 (b0a8486541, 2022-12-01)"
   sodipodi:docname="prototype.svg"
   xmlns:inkscape="http://www.inkscape.org/namespaces/inkscape"
   xmlns:sodipodi="http://sodipodi.sourceforge.net/DTD/sodipodi-0.dtd"
   xmlns="http://www.w3.org/2000/svg"
   xmlns:svg="http://www.w3.org/2000/svg"><sodipodi:namedview
     id="namedview7"
     pagecolor="#ffffff"
     bordercolor="#000000"
     borderopacity="0.25"
     inkscape:showpageshadow="2"
     inkscape:pageopacity="0.0"
     inkscape:pagecheckerboard="0"
     inkscape:deskcolor="#d1d1d1"
     inkscape:document-units="px"
     showgrid="false"
     showguides="false"
     inkscape:zoom="0.11752377"
     inkscape:cx="3522.6917"
     inkscape:cy="-727.51242"
     inkscape:window-width="1584"
     inkscape:window-height="847"
     inkscape:window-x="0"
     inkscape:window-y="0"
     inkscape:window-maximized="1"
     inkscape:current-layer="layer1" /><defs
     id="defs2" /><g
     inkscape:label="Layer 1"
     inkscape:groupmode="layer"
     id="layer1"
     transform="translate(-110.95456,-192.37512)"><path
       id="path12529"
       style="opacity:1;fill:none;fill-opacity:1;stroke:#f0b73a;stroke-width:5;stroke-linecap:square;stroke-dasharray:none;stroke-opacity:1"
       d="m 620.48795,224.53539 c -10.73486,-2.98794 -22.21845,-5.97598 -34.16874,-8.84207 -11.9503,-2.8661 -24.36814,-5.61059 -36.97159,-8.10893 -6.30171,-1.24917 -12.649,-2.43738 -19.00857,-3.5485 -6.35957,-1.11113 -12.73031,-2.14541 -19.07745,-3.08774 -6.34714,-0.94234 -12.67164,-1.79345 -18.93606,-2.53626 -6.26442,-0.74282 -12.47025,-1.37675 -18.58167,-1.8893 -6.56761,-0.5508 -13.12358,-0.97527 -19.66353,-1.2551 -6.53995,-0.27984 -13.06329,-0.41496 -19.56392,-0.38928 -6.50063,0.0257 -12.97893,0.21138 -19.42857,0.57711 -6.44964,0.36573 -12.87062,0.91181 -19.25761,1.65214 -6.38701,0.74032 -12.73964,1.67584 -19.05232,2.82532 -6.31269,1.14948 -12.58608,2.51158 -18.81279,4.10474 -6.22672,1.59317 -12.40758,3.41761 -18.53666,5.489 -6.12908,2.07141 -12.20499,4.38965 -18.22478,6.97384 -6.04537,2.59516 -11.939,5.41677 -17.68645,8.45867 -5.74745,3.04191 -11.34932,6.30523 -16.81515,9.78 -5.46582,3.47477 -10.79563,7.1612 -15.99613,11.05494 -5.2005,3.89375 -10.27238,7.99425 -15.22387,12.2931 -4.95147,4.29887 -9.78186,8.79772 -14.50061,13.4878 -4.71876,4.69009 -9.32595,9.5711 -13.82828,14.63853 -4.50234,5.06743 -8.90047,10.32155 -13.20269,15.75246 -4.30221,5.43091 -8.50859,11.03814 -12.62699,16.81865 -3.89105,5.4614 -7.71657,11.10514 -11.46369,16.89175 -3.74712,5.78661 -7.41589,11.71754 -10.98879,17.753 -3.57288,6.03545 -7.05111,12.17479 -10.41948,18.38274 -3.36835,6.20794 -6.62615,12.48395 -9.7597,18.78802 -3.13354,6.30407 -6.14277,12.63643 -9.0112,18.96027 -2.86843,6.32384 -5.5968,12.63942 -8.16983,18.90667 -2.57304,6.26725 -4.99052,12.48626 -7.23786,18.62056 -2.24734,6.1343 -4.32354,12.1831 -6.21489,18.10809 -1.99115,6.23761 -3.78596,12.35432 -5.38006,18.35808 -1.59411,6.00377 -2.98745,11.89468 -4.17535,17.68806 -1.1879,5.79339 -2.17002,11.48786 -2.94257,17.09433 -0.77256,5.60646 -1.33538,11.1253 -1.68344,16.56829 -0.34806,5.44299 -0.48269,10.81129 -0.3971,16.11427 0.0856,5.30299 0.39147,10.54066 0.91985,15.72709 0.52838,5.18643 1.27893,10.32134 2.25925,15.41467 0.98033,5.09332 2.18972,10.1459 3.63114,15.16959 1.43229,4.99185 3.08823,9.93021 4.95888,14.81765 1.87065,4.88743 3.95672,9.72316 6.24366,14.51283 2.28694,4.78968 4.77628,9.5329 7.45746,14.23144 2.68117,4.69853 5.55272,9.35294 8.60604,13.96702 3.05333,4.61408 6.28693,9.18743 9.69033,13.72376 3.40343,4.53624 6.97702,9.03588 10.70843,13.50109 3.73144,4.46511 7.62155,8.89613 11.65893,13.29683 4.03739,4.4006 8.22199,8.77025 12.54323,13.11315 4.22703,4.24808 8.59028,8.47262 13.07144,12.66622 4.48112,4.1937 9.08069,8.35619 13.77805,12.48163 4.69736,4.12543 9.49226,8.21386 14.36789,12.25744 4.87567,4.0435 9.83154,8.04368 14.84758,11.99164 5.01602,3.94797 10.0929,7.84402 15.21138,11.68278 5.11851,3.83867 10.27917,7.61958 15.46219,11.33535 10.36607,7.43156 20.82371,14.60255 31.22045,21.46019 10.22146,6.74204 20.76869,13.43605 31.49606,19.94861 5.36366,3.25638 10.77317,6.46686 16.2079,9.61638 5.43472,3.14953 10.89448,6.23785 16.36334,9.24755 5.46886,3.0097 10.94645,5.94047 16.4125,8.77735 5.46603,2.83698 10.92133,5.58091 16.3476,8.21209 5.42625,2.63128 10.8236,5.15004 16.17316,7.54253 5.34953,2.39258 10.6507,4.6574 15.88657,6.77831 5.45971,2.21153 10.85413,4.27285 16.18763,6.17549 5.33352,1.90254 10.60729,3.64642 15.82504,5.22703 5.21777,1.58051 10.37994,2.99684 15.4924,4.24228 5.11249,1.24534 10.17502,2.32066 15.19272,3.2176 5.0177,0.89694 9.99065,1.61728 14.924,2.15277 4.93338,0.5354 9.82728,0.88505 14.68681,1.04576 4.85953,0.16072 9.6848,0.13201 14.48093,-0.0951 4.79613,-0.22711 9.56387,-0.652 14.30711,-1.28017 4.72156,-0.62517 9.39321,-1.45193 14.01314,-2.47703 4.61994,-1.0251 9.18795,-2.24819 13.70098,-3.66677 4.51311,-1.41845 8.97105,-3.03328 13.37207,-4.83862 4.40105,-1.80545 8.74523,-3.80244 13.02901,-5.98819 4.28369,-2.18578 8.50708,-4.55843 12.66845,-7.11801 4.16126,-2.5596 8.25976,-5.30456 12.29345,-8.2315 4.0337,-2.92693 8.00221,-6.03719 11.90305,-9.3249 3.90084,-3.28771 7.73374,-6.75421 11.4966,-10.39631 3.80005,-3.6781 7.48245,-7.48742 11.0495,-11.42187 3.56698,-3.93456 7.0187,-7.99494 10.36148,-12.17459 3.34275,-4.17955 6.57503,-8.47773 9.70221,-12.89093 3.12711,-4.41332 6.14865,-8.94076 9.06885,-13.57641 2.92029,-4.63563 5.7405,-9.37953 8.46254,-14.22611 2.72204,-4.84658 5.34668,-9.79524 7.87932,-14.84139 2.53254,-5.04617 4.97203,-10.19058 7.32382,-15.42497 2.3518,-5.23439 4.61506,-10.55988 6.79486,-15.97111 2.13551,-5.30155 4.1843,-10.66894 6.15775,-16.09128 1.97345,-5.42232 3.87159,-10.89976 5.70985,-16.41955 3.67663,-11.03955 7.1103,-22.2496 10.40823,-33.5388 6.59588,-22.57841 12.65075,-45.46915 19.02743,-67.92499 3.22525,-11.35795 6.56516,-22.44871 9.92152,-33.30726 3.35637,-10.85856 6.72839,-21.48539 10.01604,-31.91709 3.28774,-10.43168 6.49121,-20.66897 9.5104,-30.74634 3.01919,-10.07737 5.85404,-19.99533 8.40504,-29.79089 1.30132,-4.99569 2.49736,-9.92647 3.57098,-14.79877 1.07363,-4.87228 2.02457,-9.68586 2.83599,-14.44774 0.81141,-4.76187 1.48395,-9.47182 1.99834,-14.13634 0.5144,-4.66452 0.87123,-9.28349 1.05381,-13.86372 0.18257,-4.58023 0.19067,-9.12172 0.007,-13.6307 -0.18406,-4.509 -0.56006,-8.98514 -1.14555,-13.43596 -0.5855,-4.45082 -1.38047,-8.8756 -2.4022,-13.28132 -1.02183,-4.40573 -2.27053,-8.79314 -3.76341,-13.16683 -1.47554,-4.32286 -3.16644,-8.54941 -5.06445,-12.68035 -1.89801,-4.13094 -4.0047,-8.16578 -6.30835,-12.10575 -2.30366,-3.93998 -4.80422,-7.78451 -7.4966,-11.53447 -2.69248,-3.74998 -5.57519,-7.40626 -8.63947,-10.96718 -3.06428,-3.56091 -6.31037,-7.02711 -9.72973,-10.39995 -3.41926,-3.37281 -7.01262,-6.65186 -10.77003,-9.83754 -3.75742,-3.18568 -7.67869,-6.27761 -11.75734,-9.2771 -4.07865,-2.99949 -8.31415,-5.90585 -12.69721,-8.72013 -4.29473,-2.75756 -8.70788,-5.41085 -13.22863,-7.96677 -4.52073,-2.55591 -9.1504,-5.01575 -13.8818,-7.38554 -4.7314,-2.36981 -9.56391,-4.64986 -14.49062,-6.84907 -4.92672,-2.1992 -9.9474,-4.31694 -15.05409,-6.36107 -5.10668,-2.04414 -10.29951,-4.01464 -15.57083,-5.91922 -5.27131,-1.90458 -10.62023,-3.74292 -16.04082,-5.52348 -5.42059,-1.78055 -10.91284,-3.5047 -16.46736,-5.17674 -5.55453,-1.67204 -11.17131,-3.29229 -16.84442,-4.87134 z"
       inkscape:export-filename="path12529.svg"
       inkscape:export-xdpi="96"
       inkscape:export-ydpi="96" /></g></svg>
