<?xml version="1.0" encoding="UTF-8" standalone="no"?>
<!-- Created with Inkscape (http://www.inkscape.org/) -->

<svg
   width="6159.5596"
   height="1121.3926"
   viewBox="0 0 6159.5596 1121.3926"
   version="1.1"
   id="svg5"
   xml:space="preserve"
   inkscape:version="1.2.2 (b0a8486541, 2022-12-01)"
   sodipodi:docname="prototype.svg"
   xmlns:inkscape="http://www.inkscape.org/namespaces/inkscape"
   xmlns:sodipodi="http://sodipodi.sourceforge.net/DTD/sodipodi-0.dtd"
   xmlns="http://www.w3.org/2000/svg"
   xmlns:svg="http://www.w3.org/2000/svg"><sodipodi:namedview
     id="namedview7"
     pagecolor="#ffffff"
     bordercolor="#000000"
     borderopacity="0.25"
     inkscape:showpageshadow="2"
     inkscape:pageopacity="0.0"
     inkscape:pagecheckerboard="0"
     inkscape:deskcolor="#d1d1d1"
     inkscape:document-units="px"
     showgrid="false"
     showguides="false"
     inkscape:zoom="0.47009506"
     inkscape:cx="971.08018"
     inkscape:cy="590.30613"
     inkscape:window-width="1584"
     inkscape:window-height="847"
     inkscape:window-x="0"
     inkscape:window-y="0"
     inkscape:window-maximized="1"
     inkscape:current-layer="layer1" /><defs
     id="defs2" /><g
     inkscape:label="Layer 1"
     inkscape:groupmode="layer"
     id="layer1"
     transform="translate(6295.8413,1623.0221)"><g
       id="g2351"
       transform="translate(-5504.9801,1541.5072)"><path
         id="path2165"
         style="opacity:1;fill:#07aba0;fill-opacity:1;stroke:none;stroke-width:15.6654;stroke-linecap:round;stroke-dasharray:none;stroke-opacity:1"
         d="m -622.11722,-3164.5293 v 0.8281 c 1.7297,0.1064 3.4609,0.097 5.1894,0.2285 7.9482,0.6071 15.8803,1.4885 23.7618,2.7012 7.8815,1.2128 15.7134,2.7574 23.4628,4.6856 6.7936,1.6903 13.5179,3.6873 20.1055,6.0039 6.5877,2.3167 13.0384,4.951 19.2774,7.9121 6.2389,2.961 12.2681,6.2495 18.0156,9.873 5.7475,3.6236 11.2148,7.5826 16.3281,11.8867 2.9221,2.4594 5.7281,5.0343 8.4063,7.7207 4.8521,4.8676 9.20039,10.0226 13.0898,15.4004 3.8894,5.3774 7.3202,10.9775 10.332,16.7286 3.0117,5.7509 5.6049,11.6531 7.8242,17.6406 2.21939,5.9876 4.066,12.0612 5.5782,18.1484 1.51,6.0781 2.7019,12.1761 3.6465,18.2832 0.9447,6.1069 1.6403,12.2222 2.1543,18.3321 1.0278,12.2194 1.3295,24.4176 1.4433,36.4902 0.1138,12.0708 0.045,24.07 0.2988,35.9629 0.2533,11.8931 0.8285,23.6797 2.2266,35.334 0.6984,5.8223 1.6112,11.6235 2.7832,17.3632 1.172,5.7397 2.6017,11.418 4.3379,16.9942 1.7362,5.5762 3.7771,11.0511 6.168,16.3828 2.3909,5.3317 5.1334,10.523 8.2695,15.5293 2.28369,3.6455 4.77589,7.1861 7.4551,10.625 2.679,3.4391 5.5456,6.7768 8.582,10.0098 6.0727,6.4661 12.8211,12.5198 20.0938,18.166 7.2726,5.6459 15.0692,10.882 23.2363,15.7129 8.1669,4.8306 16.7049,9.2574 25.4609,13.2773 8.77208,4.0275 17.78128,7.6893 26.97073,11.0781 9.18935,3.3889 18.56019,6.5022 28.05664,9.4356 18.993,5.8673 38.49098,11.0079 58.05078,16.1543 19.56369,5.1477 39.33423,10.3549 58.83593,16.4121 9.75085,3.0286 19.43419,6.2703 28.99024,9.8242 9.55595,3.5538 18.98491,7.4196 28.22656,11.6973 9.258025,4.285 18.337625,9.0209 27.062475,14.2226 8.72486,5.2018 17.09535,10.8685 24.9375,17.0215 7.84209,6.1529 15.15564,12.7925 21.76563,19.9317 3.30506,3.5694 6.43377,7.2635 9.36523,11.0859 2.9315,3.8228 5.66748,7.7735 8.18164,11.8535 2.8495,4.6239 5.37318,9.3273 7.61914,14.0977 2.246,4.7703 4.21257,9.6069 5.94336,14.4921 3.4617,9.7711 5.982575,19.7399 7.914065,29.7832 1.93136,10.0436 3.27269,20.1634 4.38086,30.2286 1.10819,10.0653 1.98265,20.078 2.9746,29.914 0.9911,9.8275 2.11804,19.5933 3.70704,29.2149 1.58907,9.6218 3.64146,19.0994 6.47657,28.3554 1.416,4.6227 3.03536,9.1966 4.88086,13.6836 1.84569,4.4871 3.91672,8.8866 6.23241,13.1621 2.3156,4.2757 4.87697,8.4277 7.70312,12.4161 2.8261,3.9883 5.91784,7.8142 9.29493,11.4394 5.20016,5.5823 11.06884,10.675 17.46679,15.3027 6.39799,4.6281 13.32417,8.7922 20.63672,12.5157 7.31268,3.7234 15.01311,7.0063 22.95706,9.875 7.94396,2.8688 16.13364,5.3227 24.42578,7.3867 8.31276,2.069 16.75749,3.782 25.30665,5.2383 8.54926,1.4561 17.20103,2.6569 25.92968,3.6914 17.45741,2.0691 35.21788,3.4843 53.05078,5.0137 17.83861,1.5297 35.91455,3.2026 53.88477,5.8437 8.98516,1.3207 17.94394,2.8829 26.83398,4.791 8.88995,1.9083 17.71232,4.1626 26.42187,6.8653 8.73568,2.7103 17.36578,5.9148 25.70703,9.6347 8.34117,3.7198 16.39266,7.9539 23.97071,12.7266 7.57808,4.7726 14.68275,10.0838 21.1289,15.9531 3.2231,2.9347 6.28139,6.0097 9.15235,9.2266 2.871,3.2173 5.55454,6.5771 8.02734,10.082 2.94797,4.1787 5.54539,8.486 7.83789,12.8867 2.2924,4.4006 4.28032,8.8948 6.01173,13.4453 1.73156,4.5505 3.20531,9.1569 4.4707,13.7852 1.2653,4.6283 2.3228,9.2782 3.2168,13.9121 1.78626,9.2588 2.95278,18.4911 3.92187,27.6523 0.9691,9.1611 1.74007,18.251 2.73438,27.2207 0.99389,8.9668 2.22182,17.8577 4.0332,26.545 1.81129,8.6874 4.20636,17.1722 7.53516,25.3261 1.65957,4.0654 3.56888,8.0544 5.73438,11.918 2.16548,3.8635 4.58812,7.6011 7.26952,11.1543 2.68149,3.5532 5.62258,6.9247 8.83006,10.0586 3.2076,3.1343 6.68026,6.0301 10.42383,8.6367 3.73558,2.6012 7.74835,4.9219 11.97852,6.9805 3.12196,1.5193 6.46922,2.7543 9.8047,4 h 1763.31456 1127.9805 557.6719 1231.4628 v -0.8281 c -1.7298,-0.1064 -3.4609,-0.097 -5.1894,-0.2286 -7.9481,-0.6071 -15.8802,-1.4884 -23.7617,-2.7011 -7.8815,-1.2128 -15.7134,-2.7574 -23.4629,-4.6856 -6.7936,-1.6903 -13.518,-3.6873 -20.1055,-6.0039 -6.5877,-2.3167 -13.0383,-4.951 -19.2773,-7.9121 -6.2389,-2.961 -12.2682,-6.2495 -18.0157,-9.873 -5.7476,-3.6236 -11.2148,-7.5827 -16.3281,-11.8868 -2.9221,-2.4594 -5.728,-5.0343 -8.4062,-7.7207 -4.8521,-4.8676 -9.2005,-10.0226 -13.0899,-15.4004 -3.8894,-5.3773 -7.3203,-10.9774 -10.332,-16.7285 -3.0117,-5.751 -5.6048,-11.6531 -7.8242,-17.6406 -2.2194,-5.9876 -4.066,-12.0612 -5.5781,-18.1484 -1.51,-6.0781 -2.7019,-12.1761 -3.6465,-18.2832 -0.9447,-6.1069 -1.6403,-12.2222 -2.1543,-18.3321 -1.0278,-12.2195 -1.3296,-24.4176 -1.4434,-36.4902 -0.1138,-12.0708 -0.045,-24.07 -0.2988,-35.9629 -0.2533,-11.8931 -0.8285,-23.6797 -2.2266,-35.334 -0.6984,-5.8223 -1.6112,-11.6236 -2.7832,-17.3633 -1.172,-5.7397 -2.6017,-11.4179 -4.3379,-16.9941 -1.7362,-5.5762 -3.777,-11.0511 -6.1679,-16.3828 -2.3909,-5.3317 -5.1335,-10.523 -8.2696,-15.5293 -2.2837,-3.6455 -4.7759,-7.1861 -7.4551,-10.625 -2.6791,-3.4391 -5.5456,-6.7768 -8.582,-10.0098 -6.0727,-6.4662 -12.821,-12.5198 -20.0937,-18.166 -7.2726,-5.6459 -15.0693,-10.882 -23.2364,-15.7129 -8.167,-4.8306 -16.7049,-9.2574 -25.4609,-13.2773 -8.7721,-4.0275 -17.7813,-7.6894 -26.9707,-11.0781 -9.1894,-3.3889 -18.5602,-6.5022 -28.0566,-9.4356 -18.993,-5.8673 -38.4909,-11.0079 -58.0508,-16.1543 -19.5637,-5.1477 -39.3343,-10.3549 -58.836,-16.4121 -9.7509,-3.0286 -19.4342,-6.2703 -28.9902,-9.8242 -9.556,-3.5538 -18.9849,-7.4196 -28.2266,-11.6973 -9.2581,-4.285 -18.3376,-9.0209 -27.0625,-14.2226 -8.7249,-5.2018 -17.0953,-10.8685 -24.9375,-17.0215 -7.8421,-6.1529 -15.1556,-12.7925 -21.7656,-19.9317 -3.3051,-3.5695 -6.4337,-7.2635 -9.3652,-11.0859 -2.9315,-3.8228 -5.6675,-7.7735 -8.1817,-11.8535 -2.8495,-4.6239 -5.3732,-9.3273 -7.6191,-14.0977 -2.246,-4.7703 -4.2126,-9.6069 -5.9434,-14.4922 -3.4617,-9.7711 -5.9825,-19.7398 -7.914,-29.7832 -1.9313,-10.0436 -3.2728,-20.1633 -4.3809,-30.2285 -1.1082,-10.0653 -1.9827,-20.0781 -2.9746,-29.914 -0.9911,-9.8275 -2.118,-19.5933 -3.707,-29.2149 -1.589,-9.6218 -3.6415,-19.0995 -6.4766,-28.3555 -1.416,-4.6227 -3.0353,-9.1966 -4.8808,-13.6836 -1.8457,-4.487 -3.9168,-8.8866 -6.2325,-13.1621 -2.3156,-4.2757 -4.877,-8.4276 -7.7031,-12.416 -2.8261,-3.9883 -5.9178,-7.8142 -9.2949,-11.4394 -5.2001,-5.5823 -11.0689,-10.675 -17.4668,-15.3028 -6.398,-4.6281 -13.3241,-8.7921 -20.6367,-12.5156 -7.3126,-3.7234 -15.0131,-7.0063 -22.9571,-9.875 -7.944,-2.8688 -16.1335,-5.3227 -24.4257,-7.3867 -8.3128,-2.069 -16.7576,-3.782 -25.3067,-5.2383 -8.5493,-1.4561 -17.201,-2.6569 -25.9297,-3.6914 -17.4574,-2.0691 -35.2179,-3.4843 -53.0507,-5.0137 -17.8386,-1.5298 -35.9146,-3.2026 -53.8848,-5.8437 -8.9852,-1.3207 -17.944,-2.8829 -26.834,-4.791 -8.89,-1.9083 -17.7124,-4.1626 -26.4219,-6.8653 -8.7357,-2.7104 -17.3658,-5.9148 -25.707,-9.6347 -8.3412,-3.7198 -16.3927,-7.9539 -23.9707,-12.7266 -7.5781,-4.7726 -14.6828,-10.0838 -21.1289,-15.9531 -3.2232,-2.9347 -6.2814,-6.0097 -9.1524,-9.2266 -2.871,-3.2173 -5.5545,-6.5771 -8.0273,-10.082 -2.948,-4.1787 -5.5454,-8.486 -7.8379,-12.8867 -2.2924,-4.4006 -4.2802,-8.8948 -6.0117,-13.4453 -1.7315,-4.5505 -3.2054,-9.1569 -4.4707,-13.7852 -1.2653,-4.6283 -2.3228,-9.2782 -3.2168,-13.9121 -1.7862,-9.2588 -2.9528,-18.4912 -3.9219,-27.6524 -0.9691,-9.161 -1.7401,-18.251 -2.7344,-27.2207 -0.9939,-8.9667 -2.2218,-17.8576 -4.0332,-26.5449 -1.8113,-8.6874 -4.2063,-17.1723 -7.5351,-25.3261 -1.6595,-4.0654 -3.5689,-8.0544 -5.7344,-11.918 -2.1655,-3.8635 -4.5881,-7.6011 -7.2695,-11.1543 -2.6815,-3.5532 -5.6226,-6.9247 -8.8301,-10.0586 -3.2076,-3.1343 -6.6802,-6.0301 -10.4238,-8.6367 -3.7355,-2.6012 -7.7484,-4.9219 -11.9785,-6.9805 -3.1219,-1.5193 -6.4692,-2.7543 -9.8047,-4 H 2294.9981 1167.0176 609.34566 Z" /><rect
         style="opacity:1;fill:#7cd3cd;fill-opacity:0;stroke:none;stroke-width:20.1372;stroke-linecap:round;stroke-dasharray:none;stroke-opacity:1"
         id="rect2344"
         width="168.74414"
         height="1121.3926"
         x="-790.86133"
         y="-3164.5293" /><rect
         style="opacity:1;fill:#7cd3cd;fill-opacity:0;stroke:none;stroke-width:20.1372;stroke-linecap:round;stroke-dasharray:none;stroke-opacity:1"
         id="rect2346"
         width="168.74414"
         height="1121.3926"
         x="5199.9541"
         y="-3164.5293" /></g></g></svg>
